<svg width="18" height="16" viewBox="0 0 18 16" fill="none" xmlns="http://www.w3.org/2000/svg">
<path d="M14.1406 14C14.1406 14.5523 14.6183 15 15.2077 15C15.797 15 16.2747 14.5523 16.2747 14C16.2747 13.4477 15.797 13 15.2077 13C14.6183 13 14.1406 13.4477 14.1406 14Z" stroke="white" stroke-width="2" stroke-linecap="round" stroke-linejoin="round"/>
<path d="M7.73801 14C7.73801 14.5523 8.21576 15 8.8051 15C9.39444 15 9.87219 14.5523 9.87219 14C9.87219 13.4477 9.39444 13 8.8051 13C8.21576 13 7.73801 13.4477 7.73801 14Z" stroke="white" stroke-width="2" stroke-linecap="round" stroke-linejoin="round"/>
<path d="M1.33545 14C1.33545 14.5523 1.8132 15 2.40254 15C2.99188 15 3.46963 14.5523 3.46963 14C3.46963 13.4477 2.99188 13 2.40254 13C1.8132 13 1.33545 13.4477 1.33545 14Z" stroke="white" stroke-width="2" stroke-linecap="round" stroke-linejoin="round"/>
<path d="M14.1406 8C14.1406 8.55228 14.6183 9 15.2077 9C15.797 9 16.2747 8.55228 16.2747 8C16.2747 7.44772 15.797 7 15.2077 7C14.6183 7 14.1406 7.44772 14.1406 8Z" stroke="white" stroke-width="2" stroke-linecap="round" stroke-linejoin="round"/>
<path d="M7.73801 8C7.73801 8.55228 8.21576 9 8.8051 9C9.39444 9 9.87219 8.55228 9.87219 8C9.87219 7.44772 9.39444 7 8.8051 7C8.21576 7 7.73801 7.44772 7.73801 8Z" stroke="white" stroke-width="2" stroke-linecap="round" stroke-linejoin="round"/>
<path d="M1.33545 8C1.33545 8.55228 1.8132 9 2.40254 9C2.99188 9 3.46963 8.55228 3.46963 8C3.46963 7.44772 2.99188 7 2.40254 7C1.8132 7 1.33545 7.44772 1.33545 8Z" stroke="white" stroke-width="2" stroke-linecap="round" stroke-linejoin="round"/>
<path d="M14.1406 2C14.1406 2.55228 14.6183 3 15.2077 3C15.797 3 16.2747 2.55228 16.2747 2C16.2747 1.44772 15.797 1 15.2077 1C14.6183 1 14.1406 1.44772 14.1406 2Z" stroke="white" stroke-width="2" stroke-linecap="round" stroke-linejoin="round"/>
<path d="M7.73801 2C7.73801 2.55228 8.21576 3 8.8051 3C9.39444 3 9.87219 2.55228 9.87219 2C9.87219 1.44772 9.39444 1 8.8051 1C8.21576 1 7.73801 1.44772 7.73801 2Z" stroke="white" stroke-width="2" stroke-linecap="round" stroke-linejoin="round"/>
<path d="M1.33545 2C1.33545 2.55228 1.8132 3 2.40254 3C2.99188 3 3.46963 2.55228 3.46963 2C3.46963 1.44772 2.99188 1 2.40254 1C1.8132 1 1.33545 1.44772 1.33545 2Z" stroke="white" stroke-width="2" stroke-linecap="round" stroke-linejoin="round"/>
</svg>
