<svg width="85" height="85" viewBox="0 0 85 85" fill="none" xmlns="http://www.w3.org/2000/svg">
<circle cx="42.3655" cy="42.3655" r="28.3655" fill="#A778D8"/>
<circle cx="42.2185" cy="42.2185" r="42.2185" fill="#A778D8" fill-opacity="0.16"/>
<path d="M42 45L45 42M45 42L42 39M45 42H34M34 37.248V37.2002C34 36.0801 34 35.5196 34.218 35.0918C34.4097 34.7155 34.7155 34.4097 35.0918 34.218C35.5196 34 36.0801 34 37.2002 34H46.8002C47.9203 34 48.4796 34 48.9074 34.218C49.2837 34.4097 49.5905 34.7155 49.7822 35.0918C50 35.5192 50 36.079 50 37.1969V46.8036C50 47.9215 50 48.4805 49.7822 48.9079C49.5905 49.2842 49.2837 49.5905 48.9074 49.7822C48.48 50 47.921 50 46.8031 50H37.1969C36.079 50 35.5192 50 35.0918 49.7822C34.7155 49.5905 34.4097 49.2839 34.218 48.9076C34 48.4798 34 47.9201 34 46.8V46.75" stroke="white" stroke-width="3" stroke-linecap="round" stroke-linejoin="round"/>
</svg>
