<svg width="85" height="85" viewBox="0 0 85 85" fill="none" xmlns="http://www.w3.org/2000/svg">
<circle cx="42.3655" cy="42.3655" r="28.3655" fill="#198FCF"/>
<path d="M42 45L39 42M39 42L42 39M39 42H50M50 37.248V37.2002C50 36.0801 50 35.5196 49.782 35.0918C49.5903 34.7155 49.2845 34.4097 48.9082 34.218C48.4804 34 47.9199 34 46.7998 34H37.1998C36.0797 34 35.5204 34 35.0926 34.218C34.7163 34.4097 34.4095 34.7155 34.2178 35.0918C34 35.5192 34 36.079 34 37.1969V46.8036C34 47.9215 34 48.4805 34.2178 48.9079C34.4095 49.2842 34.7163 49.5905 35.0926 49.7822C35.52 50 36.079 50 37.1969 50H46.8031C47.921 50 48.4808 50 48.9082 49.7822C49.2845 49.5905 49.5903 49.2839 49.782 48.9076C50 48.4798 50 47.9201 50 46.8V46.75" stroke="white" stroke-width="3" stroke-linecap="round" stroke-linejoin="round"/>
<path d="M84.4369 42.2185C84.4369 65.5351 65.5351 84.437 42.2184 84.437C18.9018 84.437 -3.8147e-05 65.5351 -3.8147e-05 42.2185C-3.8147e-05 18.9019 18.9018 1.90735e-05 42.2184 1.90735e-05C65.5351 1.90735e-05 84.4369 18.9019 84.4369 42.2185Z" fill="#198FCF" fill-opacity="0.09"/>
</svg>
