<svg width="20" height="19" viewBox="0 0 20 19" fill="none" xmlns="http://www.w3.org/2000/svg">
<path d="M18.3418 15.0002V9.45222C18.3418 8.91789 18.3413 8.65057 18.272 8.40193C18.2105 8.18159 18.1097 7.97307 17.9732 7.78464C17.8192 7.57201 17.605 7.39569 17.1759 7.04383L12.0539 2.84383C11.2572 2.19054 10.8588 1.86406 10.4105 1.73982C10.0155 1.63035 9.59442 1.63035 9.19939 1.73982C8.75142 1.86397 8.35364 2.19014 7.55814 2.84244L2.4344 7.04383C2.00529 7.39569 1.79123 7.57201 1.63721 7.78464C1.50071 7.97307 1.39908 8.18159 1.33764 8.40193C1.26831 8.65057 1.26831 8.91788 1.26831 9.45222V15.0002C1.26831 15.932 1.26831 16.3978 1.43077 16.7654C1.64737 17.2554 2.06257 17.6452 2.5855 17.8482C2.9777 18.0005 3.47491 18.0005 4.46931 18.0005C5.46372 18.0005 5.96147 18.0005 6.35367 17.8482C6.87661 17.6452 7.2917 17.2555 7.5083 16.7654C7.67076 16.3979 7.67087 15.932 7.67087 15.0001V14.0001C7.67087 12.8955 8.62637 12.0001 9.80505 12.0001C10.9837 12.0001 11.9392 12.8955 11.9392 14.0001V15.0001C11.9392 15.932 11.9392 16.3979 12.1017 16.7654C12.3183 17.2555 12.7335 17.6452 13.2564 17.8482C13.6486 18.0005 14.1458 18.0005 15.1402 18.0005C16.1346 18.0005 16.6324 18.0005 17.0246 17.8482C17.5475 17.6452 17.9626 17.2554 18.1792 16.7654C18.3417 16.3978 18.3418 15.932 18.3418 15.0002Z" stroke="white" stroke-width="2" stroke-linecap="round" stroke-linejoin="round"/>
</svg>
