<svg xmlns="http://www.w3.org/2000/svg" xmlns:xlink="http://www.w3.org/1999/xlink" preserveAspectRatio="xMidYMid meet" version="1.0" viewBox="0.0 0.0 455.7 286.7" zoomAndPan="magnify" style="fill: rgb(0, 0, 0);" original_string_length="38027"><g clip-rule="evenodd" fill-rule="evenodd"><g id="__id0_s5keezi2p8"><path d="M140.15,257.19l10.05,27.63l-17.3,0.56L140.15,257.19z M269.92,270.59c1.12,5.02-1.67,10.33-8.93,10.6c-7.26,0.28-56.09-1.95-56.09-1.95c-1.95,1.12-2.51,4.47-2.51,4.47l-17.02,0.84 l-35.16,0.28l-11.44-31.53l0.56,6.7l-6.42,25.4l-25.4-0.28c0,0,0.89-0.6,2.29-1.61c-1.72,0.36-3.68,0.48-5.92,0.22 c-9.49-1.12-35.72-24.28-41.58-35.72c0,0,0.56-12.28,7.53-17.3c6.98-5.02,17.58-3.35,17.58-3.35l19.26,17.86l30.14-42.14 c0,0-5.3-1.67-4.47-10.6s1.4-12,1.4-12s-12.42-1.67-16.6-2.23c-2.18-0.29-4.68-0.81-6.5-2.01c1.1,1.48,2.94,2.45,6.08,2.94 c0,0,6.14,13.21-6.51,16.37s-24.93-5.95-31.63-16c0,0,3.23-0.24,6.34-3.53c-2.17,1.38-5.22,2.22-9.5,2.04l4.09-22.33l10.42,6.7 c0,0,0.15,0.82,0.18,2.09c1.18-5.28,1.49-10.27,1.49-10.27s-10.6-5.02-9.12-9.3c1.49-4.28,3.91-5.77,7.72-4.93s1.4-4.19,1.4-4.19 l-4.65-9.67c0,0-2.23-5.02,3.72-6.51c5.95-1.49,9.3-2.05,13.4-4.28c4.09-2.23,8.19-8.37,11.53-4.28c0.4,0.49,0.87,1.14,1.4,1.93 c-0.68-1.26-0.93-2.13-1.54-3.83c-1.26-3.49-3.35-8.09-12-7.4c-8.65,0.7-18,5.02-18,5.02s2.51-12.28,10.6-16.19 c8.09-3.91,17.3-2.98,17.3-2.98c20.09,2.98,14.88-27.16,14.88-27.16c-2.6-2.6-7.44-10.79-4.09-13.77s8.93,0.74,8.93,0.74 c9.67-2.23,29.02-19.72,29.02-19.72s5.21,8.93,6.33,23.81c1.12,14.88-20.84,18.6-20.84,18.6s-3.35,8.56,1.86,13.4 c5.21,4.84,16.74-1.12,16.74-1.12s14.98-3.26,25.3,9.58c10.33,12.84,15.91,25.12,15.91,25.12s-5.52,1.23-10.23,6.7 c6.17-5.43,10.23-6.7,10.23-6.7l3.63,5.3l-0.56-36.28c0,0,0-9.77,3.63-9.77s1.95,8.65,3.91,11.44s1.95,2.79,1.95,2.79 s14.79-11.72,19.26-13.67s7.26-3.35,8.65-1.12s-8.37,9.49-8.37,9.49s17.02-1.12,17.58,2.51c0.56,3.63-1.4,3.63-0.84,6.14 c0.56,2.51-1.67,4.47-3.07,6.14c-1.4,1.67-1.95,3.35-7.81,4.47c-5.86,1.12-14.51,3.35-15.07,9.21s4.19,40.47,3.35,46.6 s-2.51,13.12-9.21,14.51c-6.7,1.4-13.95,2.23-33.77-31.26l-4.74-5.58c0,0-10.33,15.07-8.37,26.51 c1.95,11.44,11.16,40.47,11.16,40.47l15.35,49.12c0,0-2.23,5.86-0.28,8.09c1.46,1.67,3.08,3.65,4.03,6.06 c-0.57-2.29-1.52-4.11-1.52-4.11s45.21-1.4,53.86-1.12C268.8,263.33,268.8,265.56,269.92,270.59z M170.83,164.09 c-0.07-0.42-0.23-0.76-0.54-0.94C170.52,163.42,170.7,163.73,170.83,164.09z M165.55,177.1c0,0-0.02,0.12-0.04,0.32 c0.28-0.55,0.7-1.16,1.13-1.94C166.29,176,165.93,176.54,165.55,177.1z M168.95,184.06c1.21,1.37,2.12,2.51,3.29,4.47 c0.04,0.06,0.07,0.12,0.11,0.18c-0.36-1.24-0.68-2.27-2.2-3.53C169.65,184.78,169.28,184.42,168.95,184.06z M165.98,180.19 c0.26,0.61,0.65,1.27,1.24,1.94c0.49,0.55,0.92,1.03,1.32,1.48C167.63,182.49,167.23,181.54,165.98,180.19z M155.78,125.19 c9.25-1.59,13.22-7.48,14.52-14.4C168.82,117.27,164.74,122.92,155.78,125.19z M118.99,116.13c2.78,4.6,6.16,10.95,8.3,15.85 c-1.33-4.55-3.38-8.96-5.83-12.37C120.43,118.19,119.63,117.06,118.99,116.13z M128.71,145.7c0.1-0.73,0.16-1.49,0.18-2.27 c-0.77,3-2.39,6.2-4.94,8.68C126.37,150.51,128.33,148.4,128.71,145.7z M143.22,187.42c0,0,0.56-10.19-1.4-12.98 c-1.95-2.79-5.02-6.42-6.98-3.77c2.51,0,5.58,1.4,6.98,7.26C143.22,183.8,142.94,188.26,143.22,187.42z M163.87,166.22 c-2.89,2.23-5.96,5.12-7.67,6.97c-2.15,2.33-6.89,7.54-10.01,10.97C151.01,179.13,160.33,169.76,163.87,166.22z M161.36,223.42 c0,0,14.51-21.21,15.35-27.35C176.71,197.75,161.36,223.42,161.36,223.42z M176.68,195.74c-0.1-0.84-0.4-1.38-0.8-1.82 C176.28,194.6,176.58,195.22,176.68,195.74z M399.41,206.68c6.98,6.7,10.6,15.35,10.6,15.35c-5.58-3.07-17.3,4.19-17.3,4.19 c-0.56-3.91-8.37-10.88-8.37-10.88s-63.35-1.12-67.26-1.12s-4.74,5.58-4.74,5.58s2.58,0.47,4.08,2.71l-0.46-1.45l42.56-0.42 c0,0,8.23,0.28,8.93,5.58c0.7,5.3-2.65,7.81-10.05,8.23c-7.4,0.42-41.58,0.14-41.58,0.14l0.31-1.6l-3.8,2.44 c-0.56,1.67,4.19,5.58,4.19,5.58l-6.42,12.28c0,0-1.67-4.47-4.47-10.33c-2.79-5.86-1.95-23.72-1.95-23.72l-7.53,1.12 c0,0-35.16,7.81-45.49,5.02c-10.33-2.79-16.74-8.65-15.63-20.37c1.12-11.72,12.28-34.05,12.28-34.05s3.35-4.74,1.12-10.05 c-2.23-5.3-6.7-8.93-4.19-12.84c2.51-3.91,0.56-5.02,4.19-7.81c3.63-2.79,4.47-3.35,4.74-5.58c0.28-2.23-0.84-8.37,1.67-11.44 s6.98-4.47,6.7-0.28c-0.28,4.19-3.63,9.21-1.12,12c2.51,2.79,8.37,7.53,10.05,6.98c1.67-0.56,1.12-8.37,1.67-10.6 s3.63-3.07,5.86,2.79c2.23,5.86,1.12,10.6-1.67,21.21c-2.79,10.6-5.86,18.14-5.86,27.35c0,9.21,0,9.21,0,9.21l18.7-3.91 c0,0-1.85,19.24,4.8,29.62c-4.37-8.38-4.8-29.62-4.8-29.62c15.07-8.65,29.02-2.79,29.02-2.79c-0.57,5.28-2.01,10.81,2.18,15.4 c-1.72-3.07-2.21-6.59-2.46-8.98c-0.56-5.3,2.23-6.42,2.23-6.42c3.35,2.51,6.42,1.67,9.77-1.4s-3.91-16.74-3.91-16.74 c-8.37-2.51-11.72-6.42-13.67-11.16c-1.95-4.74,0.84-12.56,0.84-12.56l-1.12-4.74l9.77-3.91c2.51-5.86,13.12-13.67,13.12-13.67 l15.63,24.56c0,0,10.88,1.67,10.33,7.53c-0.56,5.86-10.6,5.02-10.6,5.02l-4.47,1.12c0,0-1.12,2.79-1.4,10.88 c-0.28,8.09,3.35,15.63,8.93,17.02c5.58,1.4,10.6,2.23,10.6,2.23s6.14-0.84,15.63,3.07S392.43,199.98,399.41,206.68z M317.27,225.22c0.04,0.63,0.03,1.3-0.02,1.97l0.24-1.26L317.27,225.22z M352.62,200.58c-5.2,3.36-11.62,5.96-18.51,6.37 c-0.14,0.01-0.26,0.01-0.4,0.01C340.57,207.91,347.27,204.59,352.62,200.58z M434.85,259.89c-2.42-7.07-24.84-37.86-24.84-37.86 s-12.19,0.28-16.09,4.93c-3.91,4.65-2.6,7.63-5.77,9.86s3.16,3.16,3.72,5.77c0.56,2.6-2.05,2.05-3.72,3.72l-29.21-1.12 c1.26,3.91,4.74,4.33,10.47,5.72c0.48,0.12,1.01,0.21,1.57,0.28c-2.96-0.06-5.66-0.33-7.38-0.98c-5.95-2.23-7.81-5.95-10.6-7.26 c-2.79-1.3-11.53-5.95-9.49-0.37c0,0,1.37,1.8,2.7,3.79c-0.89-0.51-1.91-0.84-3.02-0.77c-4.33,0.28-7.4,7.4-7.4,7.4l8.65,1.49 l4.48-2.74c0.28,1.72-0.6,2.89-4.48,2.74c-4.84-0.19-17.49-2.98-22.51-3.35c-5.02-0.37-7.26,0-4.47,3.72c2.79,3.72,0.93,4.28,5.4,8 c1.25,1.04,2.75,2.03,4.5,2.96c-1.47-0.52-2.89-0.91-4.68-1.1c-5.4-0.56-12.09-8.74-12.09-8.74s0.56,5.58-0.19,13.95 s-5.95,14.88-5.95,14.88s97.86,0.37,94.88-0.19c-2.98-0.56-8-7.81-8.56-8.19c-0.43-0.29-4.25-1.12-10.71-2.41 c0.84,0.12,1.67,0.23,2.52,0.37c13.58,2.23,28.65,7.07,39.81,4.84C433.55,277,437.27,266.96,434.85,259.89z" style="fill: rgb(255, 255, 255);"/></g><g id="__id1_s5keezi2p8"><path d="M217.55,45.19c-2.05-4.28-6.88-9.49-5.58-14.88 c1.3-5.4,6.7-14.33,17.12-13.95c10.42,0.37,16,10.6,15.63,17.12c-0.37,6.51-5.4,11.53-6.14,14.7c-0.74,3.16-0.93,4.09-0.93,4.09 s0.37,2.23,0.56,5.4s-5.02,3.16-5.02,3.16s-0.74,4.28-3.72,4.65c-2.98,0.37-4.09-3.91-4.09-3.91s-1.49-0.37-3.91-1.12 c-2.42-0.74,0-2.42-1.3-3.91c-1.3-1.49,0-4.09,0-4.09S219.59,49.47,217.55,45.19z M133.73,180.45l-17.02-1.3 c1.67,8.19,3.63,14.42-9.21,17.49s-28.93-17.12-28.93-17.12s-14.33,0.09-27.72,3.44c-13.4,3.35-14.23,14.79-14.23,14.79 c-0.45,11.5,3.65,20.45,8.19,28.17c-0.77-1.05-1.21-1.66-1.21-1.66l-12.56,60.28l57.77,0.84l12-1.67 c-6.98-1.95-21.21-15.35-27.63-21.49c-2.8-2.68-8.81-10.27-14.68-17.96c2.22,2.31,3.79,3.73,3.79,3.73 c4.47-25.4,24.84-22.6,24.84-22.6l19.53,19.81l30.14-42.14c0,0-2.51-6.14-4.47-10.6C130.38,187.98,133.73,180.45,133.73,180.45z M290.01,256.91c-4.47-0.84-85.95,0-85.95,0s-4.47,6.7,4.19,6.7c8.65,0,52.19-2.51,56.09,0.28s6.42,10.6,5.3,13.67 c-1.12,3.07-4.47,3.63-8.65,3.63s-57.49,0-57.49,0l-1.12,2.51l95.72,1.12c0,0,0.56-15.63-0.28-20.09 C296.99,260.26,294.48,257.75,290.01,256.91z M385.73,239.05c0,0,9.12-4.84,6.98-12.84c-2.14-8-4.93-11.35-13.49-11.53 c-8.56-0.19-62.14-0.47-62.14-0.47s-5.02,3.07-4.74,5.58c0.28,2.51,48.09-0.28,51.81,1.58s5.02,6.7,3.53,9.12 c-1.49,2.42-3.35,3.72-9.3,3.91c-5.95,0.19-47.81,0-47.81,0s3.72,4.65,11.91,5.02C330.66,239.8,385.73,239.05,385.73,239.05z M336.2,240.56c0.26-0.25,0.42-0.4,0.42-0.4l-17.72,0.7c0,0-6.98,3.91-6.7,10.74c0.28,6.84,5.44,11.86,9.21,12.14 c3.77,0.28,0.56-4.05-1.54-7.12c-2.09-3.07-5.3-5.72-1.53-6.28c3.77-0.56,12.28,2.79,12.28,2.79s-0.98-5.58,1.53-8.37 c0.47-0.52,0.9-0.99,1.32-1.43c-1.25,2.38-2.71,5.84-2.3,8.41c0.7,4.33,5.72,2.09,5.72,2.09s0.83-8.46,6.28-8.23 c3.35,0.14-0.84-5.16-0.84-5.16L336.2,240.56z M349.45,239.89l7.81,5.44c0,0,34.6,0.98,34.33-0.56c-0.28-1.53-2.79-4.19-2.79-4.19 L349.45,239.89z" style="fill: rgb(17, 93, 119);"/></g><g id="__id2_s5keezi2p8"><path d="M115.59,111.05c0,0-6.98,4.09-13.12,5.49c-6.14,1.4-11.72,0-13.95,3.63 c-2.23,3.63,0.28,11.72,3.07,15.63c2.79,3.91,2.79,4.74-1.4,4.19c-4.19-0.56-6.98,0.56-7.81,3.63s4.19,8.93,9.21,10.6l-1.67,8.19 c0,0-18.6-7.81-19.35-21.95c0,0-15.63,1.86-17.49-7.44s0-14.51,4.47-17.12s13.02-4.09,18.98-0.37c0,0,9.3-10.79,21.58-12.65 C110.38,101.01,112.99,103.24,115.59,111.05z M163.41,11.89c-9.67-5.95-21.77-4.65-34.6-1.3c-12.84,3.35-17.49,16.19-18.6,23.44 s3.16,23.07,2.6,31.07c-0.56,8-10.6,23.26-10.6,23.26s17.49-0.19,22.51-3.35c5.02-3.16,3.53-24.56,3.53-24.56 c-3.35-3.91-6.14-11.16-4.09-13.77c2.05-2.6,8.93,0.74,8.93,0.74c12.84-3.53,29.02-19.72,29.02-19.72s4.65,7.81,5.58,16.19 s0.74,12.84-3.35,19.16s-16.74,7.07-16.74,7.07s-1.3-2.05-0.56,8.37c0.74,10.42,12.84,5.77,19.16,3.91 c6.33-1.86,14.33,0.37,14.33,0.37s-7.44-14.7-8-22.88s6.88-19.53,8-27.35C181.64,24.73,173.08,17.84,163.41,11.89z M443.22,212.63 c0,0,12.47-8,9.67-16.37s-10.6-10.23-19.16-13.95c-8.56-3.72-24.56-10.23-27.72-19.35c-3.16-9.12-5.4-20.47-6.88-27.72 s-2.98-12.09-10.79-14.51c-7.81-2.42-17.86,4.65-17.86,4.65s7.44,8.14,7.93,18.21c-1.48-9.53-9.23-22.2-19.83-27.33 c-11.53-5.58-26.05-1.49-33.86,2.23c-7.81,3.72-9.49,17.86-9.49,17.86s5.77-1.49,6.6-1.67c3.81-9.12,13.12-13.67,13.12-13.67 l15.63,24.56c0,0,10.42-0.28,10.33,7.53c-0.09,7.81-13.12,5.02-13.12,5.02l-4.09,4.28l0.74,7.72c0,0,9.3-0.65,19.16-3.26 c4.01-1.06,7.29-3.11,9.77-5.81c-1.13,1.57-1.96,2.09-1.96,2.09s3.16,24.93,7.44,27.91s14.33,8.93,26.6,24 c12.28,15.07,21.21,30.33,21.21,30.33s6.33,3.35,13.4-1.67c7.07-5.02,11.16-14.88,9.3-21.21S443.22,212.63,443.22,212.63z" style="fill: inherit;"/></g></g><g><g id="__id3_s5keezi2p8"><path d="M445.61,213.41c1.01-0.52,2.2-1.25,3.38-2.29c2.62-2.3,5.65-6.52,5.16-13.6c-0.63-9.22-6.89-11.64-17.26-15.64 c-5.09-1.97-11.44-4.41-18.78-8.32c-11.92-6.34-14.18-19.55-16.19-31.2c-1.59-9.27-2.97-17.28-8.76-20.78 c-11.31-6.84-20.73-0.47-23.11,1.41c-11.18-12.18-24.96-14.63-42.02-7.48c-13.57,5.68-13.72,18.07-13.63,20.32 c-0.44,0.14-0.87,0.27-1.24,0.4c-0.91,0.3-1.59,0.93-1.95,1.8c-0.7,1.7,0.03,3.94,0.51,5.07c-0.87,2.32-3.43,10.45,0.24,17.01 c2.32,4.16,6.63,6.81,12.81,7.89c3.07,8.23,4.27,16.16,2.51,16.88c-1.88,0.77-2.94,0.31-5.07-0.61c-2.14-0.93-5.06-2.2-9.95-2.34 c-8.29-0.29-33.72,5.78-40.9,7.54c0.26-6.29,0.75-13.61,1.68-18.56c0.81-4.31,2.29-8.18,3.71-11.92 c2.05-5.39,3.99-10.47,3.99-16.5c0-7.8-3.08-13.32-6.13-14.75c-1.17-0.55-2.32-0.46-3.15,0.24c-1.28,1.06-1.1,3.26-0.85,6.29 c0.12,1.51,0.38,4.61-0.08,5.35c-0.02,0-0.05-0.01-0.09-0.01c-4.01-0.8-9.39-5.3-9.6-8.03c-0.08-1,0.58-2.72,1.15-4.23 c0.97-2.56,1.9-4.97,0.75-6.73c-0.6-0.92-1.62-1.43-3.04-1.51c-2.09-0.12-4.02,0.8-5.56,2.64c-2.56,3.07-3.59,8.22-2.69,13.06 c-2.49,1.42-3.54,4.34-3.67,4.74c-0.26,0.13-0.52,0.28-0.76,0.45c-2.57,1.89-2.56,5.54-2.54,5.95c0.01,0.27,0.09,0.51,0.22,0.73 c-0.22,0.11-0.36,0.18-0.39,0.2c-0.12,0.07-0.23,0.15-0.33,0.25c-2.48,2.48-1.83,6.95,1.89,12.94c1.74,2.81,2.23,6.06,1.35,8.93 c-0.22,0.7-0.5,1.36-0.83,1.95c-3.72,6.59-14.01,28.1-12.5,40.16c1.49,11.95,6.32,15.91,19.69,15.91c0.31,0,0.63,0,0.96-0.01 c12.75-0.17,41.18-4.91,47.78-6.04c-1.21,7.58-1.03,16.59,3.15,25.28c9.18,19.08-1.52,36.86-1.63,37.03 c-0.08,0.14-0.14,0.28-0.17,0.43h-3.87v-16.28c0-6.8-5.53-12.33-12.34-12.33h-81.88c-1.98-10.29-17.21-56.94-21.88-68.43 c-4.45-10.94-7.13-31.8,0.81-43.91c0.63-0.95,1.17-1.94,1.64-2.93c1.8,3.16,5.5,9.47,9.92,15.92 c8.52,12.42,15.54,19.36,20.86,20.63c1.7,0.41,3.29,0.61,4.78,0.61c3.13,0,5.77-0.9,7.89-2.69c3.89-3.29,5.65-9.4,5.1-17.67 c-0.22-3.26-0.77-7.5-1.35-11.98c-1.61-12.45-3.82-29.5,0.39-34.1c2.6-2.84,7.32-3.86,11.48-4.76c4.69-1.01,9.52-2.05,9.73-6.02 c1.01-0.45,2.38-1.31,3.03-2.84c0.56-1.33,0.46-2.81-0.3-4.41c0.57-1.05,1.33-2.91,0.78-4.61c-0.27-0.84-0.97-1.96-2.74-2.55 c-2.57-0.86-8.82-0.96-13.33-0.91c1.66-1.25,3.52-2.78,4.98-4.3c2.04-2.13,2.63-4.38,1.58-6.04c-0.96-1.51-3.02-2-5.27-1.25 c-3.48,1.16-19.04,11.16-23.99,15.92c-0.83-1.63-0.83-3.76-0.83-5.84c0-2.63,0.01-5.12-1.71-6.65c-1.79-1.59-3.37-1.26-4.16-0.92 c-2.44,1.05-3.83,4.88-4.02,11.09c-0.14,4.43,0.05,17.64,0.29,30.2c-8.51-17.04-16.99-27.82-25.81-32.83 c-0.02-0.03-0.03-0.06-0.05-0.08c-5.11-5.21-8.28-12.19-9.41-20.73c-0.93-6.98,1.7-12.43,4.74-18.74l0.5-1.04 c1.5-3.13,2.25-5.74,2.33-8.21c0.53-14.5-13.32-25.12-26.62-27.75c-10.29-2.03-25.02-1.27-35.51,6.97 c-13.59,10.68-11.06,27.19-9.22,39.24c0.42,2.74,0.82,5.33,0.97,7.53c0.8,11.23-10.67,26.41-10.78,26.56 c-0.1,0.14-0.17,0.29-0.23,0.44c-7.33,2.37-13.88,7.5-15.68,19.19c-2.37,1.63-4.98,3.82-7.34,6.68 c-2.44-0.92-12.02-4.1-18.94-0.34c-3.58,1.94-5.83,5.38-6.7,10.21c-1.1,6.08-0.06,10.75,3.07,13.87 c3.44,3.43,8.63,4.15,12.35,4.15c1.16,0,2.17-0.07,2.94-0.15c1,6.61,4.47,11.38,8.22,14.72L74,177.41 c-0.11,0.01-0.21,0.02-0.33,0.02c-15.14,1.15-40.49,3.08-38.71,26.57c0.43,5.72,3.05,12.47,6.92,19.54 c-0.03,0.08-0.06,0.16-0.07,0.24l-11.76,59.91H1.5c-0.83,0-1.5,0.67-1.5,1.5s0.67,1.5,1.5,1.5h434.96c0.83,0,1.5-0.67,1.5-1.5 s-0.67-1.5-1.5-1.5h-35.02c-0.1-0.08-0.2-0.16-0.32-0.22c-2.17-1.08-4.47-2.99-6.21-4.6c5.98,1.21,13.14,2.29,19.77,2.29 c4.71,0,9.14-0.54,12.67-1.97c3.69-1.49,6.25-4.18,7.6-8c2.3-6.5,0.37-14.77-1.74-18.56c-0.54-0.98-1.74-2.93-3.43-5.55 c0.83,0.15,1.67,0.23,2.51,0.23c2.36,0,4.76-0.57,7.05-1.71c5.28-2.63,9.32-7.95,11.06-14.61 C452.79,221.92,448.43,216.09,445.61,213.41z M329.2,118.28c17.21-7.21,30.26-4.16,41.07,9.59c6.9,8.77,8.55,20.21,4.09,28.47 c-4.54,8.41-14.75,12.44-28.78,11.42c-0.11-1.82-0.15-3.59-0.13-5.18l2.63-3.05c2.77,0.64,8.5,1.29,11.96-1.19 c1.68-1.2,2.6-3,2.66-5.2c0.05-1.99-0.6-3.7-1.94-5.08c-2.67-2.74-7.39-3.32-9.32-3.44l-15.21-24.25 c-0.44-0.7-1.36-0.91-2.06-0.48c-0.46,0.28-10.87,6.76-13.99,14.25c-0.66,0.18-1.69,0.48-2.81,0.8 C317.39,131.95,318.36,122.82,329.2,118.28z M358.95,186.27c-2.65-0.19-4.93-0.36-6.73-0.72c-3.7-0.74-5.62-7.72-6.38-14.77 c1.39,0.09,2.73,0.15,4.01,0.15c10.06,0,16.66-2.73,20.98-6.01c0.86,5.47,2.99,17.52,6.02,24.32 C370.26,187.1,363.92,186.64,358.95,186.27z M328.43,187.65c2.83-1.16,3.39-5.18,1.71-12.29c-1.11-4.7-2.8-9.07-2.87-9.26 c-0.19-0.5-0.65-0.86-1.18-0.94c-5.67-0.83-9.54-3.02-11.49-6.51c-1.51-2.69-1.7-5.81-1.43-8.51c0.14,0.21,0.28,0.42,0.44,0.62 c0.72,0.92,1.64,1.71,2.71,2.25c1.06,0.53,2.22,0.9,3.38,0.94c0.58,0.08,1.14-0.02,1.71-0.04c0.55-0.09,1.09-0.21,1.62-0.35 c0.36-0.1,0.65-0.41,0.69-0.8c0.05-0.51-0.32-0.97-0.83-1.02l-0.16-0.02c-0.48-0.05-0.94-0.02-1.4-0.07 c-0.45-0.08-0.9-0.07-1.32-0.2c-0.86-0.15-1.64-0.48-2.37-0.87c-0.73-0.4-1.38-0.93-1.97-1.56c-0.57-0.61-1.14-1.38-1.56-2.06 l-0.09-0.15c-0.06-0.09-0.13-0.17-0.21-0.25c0.44-1.74,0.92-2.89,0.93-2.92c0.17-0.4,0.16-0.87-0.04-1.26 c-0.53-1.06-0.95-2.64-0.71-3.21c0.02-0.05,0.03-0.06,0.13-0.1c2.49-0.83,7.55-2.24,7.6-2.25c0.47-0.13,0.85-0.49,1.02-0.95 c1.87-5.39,8.89-10.64,11.77-12.61l14.82,23.62c0.27,0.44,0.75,0.7,1.27,0.7c1.54,0,5.99,0.47,8.02,2.57 c0.77,0.79,1.12,1.74,1.09,2.91c-0.04,1.28-0.48,2.18-1.4,2.84c-2.57,1.83-7.97,1.24-10.3,0.51c-0.57-0.18-1.19,0-1.58,0.45 l-3.6,4.17c-0.23,0.26-0.36,0.6-0.37,0.94c-0.06,2.51-0.32,24.63,9.17,26.52c1.98,0.4,4.35,0.57,7.09,0.77 c1.02,0.07,2.07,0.15,3.16,0.25c-3.23,4.41-13.64,16.61-29.4,15.72c-5.21-0.29-8.95-2-11.11-5.09c-3.14-4.49-2.31-10.87-1.73-13.7 c0.48,0.19,0.94,0.39,1.37,0.57C323.27,187.99,325.38,188.9,328.43,187.65z M262.59,146.39c-1.5-2.83-4.83-5.38-9.1-6.85 c-0.75-0.26-1.45-0.42-2.12-0.51c0.45-0.71,1.08-1.44,1.87-1.78c0.75-0.33,1.59-0.28,2.57,0.15c3.39,1.51,6.55,4.99,6.91,7.6 C262.78,145.52,262.74,145.98,262.59,146.39z M256.46,123.65c0.92-1.1,1.95-1.63,3.09-1.56c0.53,0.03,0.68,0.15,0.68,0.15 c0.3,0.51-0.57,2.8-1.04,4.03c-0.72,1.89-1.47,3.85-1.34,5.53c0.13,1.66,1.12,3.37,2.53,4.94c-1.09-0.85-2.25-1.57-3.36-2.06 c-0.89-0.4-1.79-0.6-2.65-0.62C253.7,130.15,254.5,125.99,256.46,123.65z M248.81,142.39c0.79-0.58,2.04-0.58,3.7-0.01 c4.2,1.44,7.45,4.2,7.9,6.72c0.1,0.55,0.05,1.08-0.14,1.58c-0.9-1.84-2.53-3.5-4.57-4.44c-3.02-1.39-6.04-1.13-8.22-0.57 C247.52,144.86,247.78,143.15,248.81,142.39z M254.49,223.99c-13.71,0.19-16.44-3.76-17.63-13.28 c-1.3-10.42,7.61-30.31,12.14-38.31c0.44-0.78,0.81-1.64,1.09-2.54c1.14-3.7,0.53-7.85-1.67-11.4c-2.67-4.31-3.57-7.67-2.45-9.09 c0.91-0.44,4.81-2.12,8.49-0.42c2.45,1.13,3.84,3.67,3.55,5.25c-0.09,0.5-0.34,1.08-1.53,1.18c-1.88,0.15-2.35-0.53-3.12-1.66 c-0.65-0.95-1.53-2.25-3.39-2.5c-0.82-0.11-1.58,0.47-1.69,1.29s0.47,1.58,1.29,1.69c0.48,0.06,0.73,0.37,1.3,1.21 c0.88,1.3,2.22,3.25,5.84,2.96c2.28-0.18,3.87-1.54,4.24-3.64c0.01-0.03,0.01-0.07,0.01-0.1c1.53-1.32,2.37-2.93,2.47-4.65 c0.06-0.04,0.12-0.06,0.18-0.1c1.64-1.35,2.35-3.18,2.07-5.29c-0.27-1.98-1.43-3.99-3-5.72c2.32,1.84,5.04,3.23,7.17,3.65 c1.29,0.26,2.15-0.2,2.63-0.63c1.65-1.47,1.39-4.59,1.12-7.89c-0.09-1.12-0.22-2.72-0.14-3.53c1.33,0.67,4.28,4.57,4.28,12 c0,5.48-1.84,10.31-3.79,15.43c-1.47,3.87-2.99,7.86-3.86,12.43c-1.99,10.54-2.02,30.7-2.02,31.55c0,0.83,0.67,1.5,1.5,1.5 s1.5-0.67,1.5-1.5c0-0.09,0-4.04,0.17-9.31c2.5-0.61,9.28-2.24,16.76-3.85c-0.87,5-1.94,17.38,5.21,30.67 C281.88,221.21,263.71,223.87,254.49,223.99z M308.17,244.93c-9.2-19.13,2.86-40.85,2.99-41.06c0.41-0.72,0.16-1.64-0.57-2.04 c-0.72-0.41-1.63-0.16-2.04,0.56c-0.28,0.49-3.73,6.7-5.64,15.41c-0.72,0.12-3.11,0.54-6.55,1.09 c-7.94-14.01-5.87-27.44-5.16-30.84c8.37-1.73,16.96-3.25,20.97-3.14c1.83,0.06,3.32,0.29,4.6,0.6c-0.69,3.1-1.8,10.69,2.13,16.33 c2.71,3.89,7.22,6.03,13.41,6.38c0.62,0.03,1.24,0.05,1.85,0.05c18.52,0,29.43-15.77,31.14-18.43 c8.32,0.99,18.03,3.41,26.49,11.87c4.73,4.73,10.29,11.55,15.72,18.73c-5.89-0.32-11.03,2.35-13.81,4.18 c-1.28-6.3-6.87-11.06-13.54-11.06H318c-3.86,0-7,3.14-7,7c0,0.83,0.67,1.5,1.5,1.5h2.1c0.7,1.5,1.67,4.11,1.35,5.8 c-0.3,1.61-0.97,3.32-1.48,4.46h-2.36c-0.83,0-1.5,0.67-1.5,1.5c0,3.41,2.32,6.27,5.47,7.12c-3.08,2.19-5.23,5.6-5.73,9.53 C309.8,248.65,309.07,246.8,308.17,244.93z M388.7,243.89h-31.08c-0.08,0-0.16,0.01-0.24,0.02c-1.34-0.91-2.81-1.77-4.32-2.52 h33.18c1.67,0,3.11,1.03,3.7,2.5H388.7z M361.96,247.82c-0.27-0.3-0.56-0.61-0.88-0.92h25.28c-0.3,0.76-0.6,1.66-0.82,2.59 C372,250.1,363.26,249.3,361.96,247.82z M337.91,252.64c-0.01-0.11-0.02-0.22-0.02-0.34c0-2.99,2.43-5.42,5.42-5.42h1.06 c0.43,0.42,0.88,0.85,1.34,1.28c0.88,0.82,2.16,2.02,2.56,2.63C347.52,251.57,343.89,252.87,337.91,252.64z M341.93,244.01 c-3.99,0.66-7.04,4.12-7.04,8.29c0,0.03,0.01,0.07,0.01,0.1c-0.88-0.1-1.71-0.23-2.52-0.39c-0.38-8.17,4.71-10.45,4.96-10.55 c0.05-0.02,0.1-0.05,0.15-0.08h3.91c-0.04,0.16-0.06,0.32-0.08,0.46C341.27,242.57,341.51,243.29,341.93,244.01z M317.67,248.92 c-1.05,0.39-1.76,1.15-1.99,2.13c-0.48,1.99,1.17,4.33,2.12,5.48c0.01,2.37,1.54,4.46,3.25,6.07c-4.5-1.31-7.8-5.46-7.8-10.38 c0-5.96,4.85-10.82,10.82-10.82h8.58c-1.69,1.92-3.33,5.05-3.29,9.92c-1.55-0.43-2.94-0.9-4.19-1.32 C322.13,248.96,319.72,248.14,317.67,248.92z M380.17,238.21H318c-1.89,0-3.5-1.2-4.11-2.88H314c0.28,0.35,0.7,0.57,1.16,0.57 h45.77c4.64,0,8.42-3.78,8.42-8.42s-3.78-8.42-8.42-8.42h-45.39h-1.24c0.59-1.46,2.03-2.5,3.7-2.5h48.76 c0.05,0.03,0.09,0.06,0.14,0.08c0.3,0.12,7.26,3.2,4.23,15.31c-0.2,0.8,0.29,1.62,1.09,1.82c0.12,0.03,0.25,0.04,0.37,0.04 c0.67,0,1.28-0.46,1.45-1.14c2.13-8.51-0.17-13.45-2.52-16.11h8.64c5.96,0,10.82,4.85,10.82,10.82S386.13,238.21,380.17,238.21z M317.88,222.06h43.05c2.99,0,5.42,2.43,5.42,5.42s-2.43,5.42-5.42,5.42h-43.42c0.52-1.25,1.1-2.88,1.4-4.48 C319.3,226.34,318.57,223.83,317.88,222.06z M296.79,267.41v16.28h-92.74c-0.09-0.67-0.05-1.21,0.15-1.52 c0.13-0.21,0.33-0.29,0.4-0.31c2.74,0.04,42.88,0.57,51.62,0.57l1.55,0c7.98,0.03,13.28,0.05,13.59-9.7 c0.26-8.11-5.44-10.69-8.49-10.92c-0.04,0-0.08,0-0.12,0h-56.57c-0.46,0-1.26-0.06-1.49-0.46c-0.37-0.62,0.02-2.1,0.53-3.27h64.98 c0.11,0.11,0.22,0.21,0.36,0.29c0.41,0.22,9.9,5.64,5.26,19.82c-0.26,0.79,0.17,1.63,0.96,1.89c0.16,0.05,0.31,0.07,0.47,0.07 c0.63,0,1.22-0.4,1.43-1.03c3.65-11.15-0.54-17.83-3.74-21.05h12.52C292.61,258.07,296.79,262.26,296.79,267.41z M208.19,278.91 c3.01-4.43,1.4-10.8,0.22-14.11h54.28c0.81,0.09,5.9,0.91,5.68,7.83c-0.22,6.83-2.4,6.83-10.58,6.8l-1.56,0 C248.81,279.43,218.75,279.04,208.19,278.91z M209.38,123.62c0.21,10.21,0.41,18.66,0.43,19.47c0.02,0.82,0.69,1.46,1.5,1.46 c0.01,0,0.02,0,0.04,0c0.83-0.02,1.48-0.71,1.46-1.54c-0.01-0.47-1.13-47.54-0.85-56.49c0.19-6,1.53-8.14,2.21-8.43 c0.31-0.13,0.75,0.2,0.98,0.41c0.71,0.63,0.71,2.55,0.7,4.4c0,2.8-0.01,5.98,1.96,8.48c1.04,1.33,6.03,8.23,1.7,13.79 c-0.51,0.65-0.39,1.6,0.26,2.1c0.65,0.51,1.6,0.39,2.1-0.26c3.89-4.99,2.36-11.23-0.48-15.74c3.87-4.08,20.06-14.55,23.23-15.6 c1.04-0.34,1.67-0.16,1.78,0.01c0.13,0.21,0.01,1.09-1.21,2.36c-3.11,3.24-8.49,6.71-8.54,6.74c-0.57,0.37-0.82,1.07-0.62,1.71 c0.21,0.65,0.79,1.09,1.49,1.05c3.8-0.16,14.3-0.34,17.23,0.63c0.71,0.24,0.81,0.53,0.84,0.63c0.17,0.51-0.11,1.37-0.47,2.07 c-4.79-0.19-18.89,0.79-20.61,0.92c-0.83,0.06-1.45,0.78-1.39,1.6c0.06,0.79,0.71,1.39,1.49,1.39c0.04,0,0.07,0,0.11,0 c4.61-0.33,16.5-1.07,20.27-0.92c0.34,0.74,0.41,1.36,0.21,1.84c-0.33,0.79-1.37,1.26-1.94,1.45c-6.99-0.92-18.11,0.68-18.58,0.75 c-0.82,0.12-1.39,0.88-1.27,1.7c0.11,0.75,0.75,1.28,1.48,1.28c0.07,0,0.15,0,0.22-0.02c0.11-0.02,10.02-1.44,16.65-0.87 c-0.6,1.24-2.93,1.88-7.19,2.8c-4.6,0.99-9.81,2.12-13.05,5.66c-5.15,5.62-3.03,22.03-1.15,36.51c0.57,4.43,1.12,8.62,1.33,11.79 c0.48,7.18-0.96,12.57-4.04,15.18c-2.35,1.99-5.73,2.48-10.03,1.45c-7.18-1.71-18.14-17.35-25.13-28.76 c0.03-0.15,0.04-0.3,0.03-0.45c0-0.05-0.51-5.07,1.14-10.62c2.13-7.18,6.74-11.9,13.69-14.05c0.58,1.19,1.16,2.41,1.75,3.67 C209.16,123.37,209.26,123.5,209.38,123.62z M114.15,60.78c-0.17-2.32-0.57-4.97-1-7.77c-1.83-11.95-4.11-26.83,8.11-36.43 c9.69-7.62,23.44-8.29,33.08-6.39c12.09,2.39,24.68,11.85,24.21,24.69c-0.07,2.04-0.72,4.27-2.04,7.02l-0.5,1.04 c-3.11,6.46-6.05,12.56-5.01,20.43c0.92,6.95,3.11,12.95,6.53,17.92c-6.6-1.85-12.39-0.49-17.23,0.66 c-1.84,0.44-3.59,0.85-5.17,1.03c-2.57,0.3-4.38-0.2-5.54-1.53c-2.12-2.42-1.76-7.28-1.29-9.86c9.77-1.49,16.31-5.48,19.44-11.89 c6.56-13.43-4.42-32.34-4.89-33.14c-0.27-0.46-0.75-0.77-1.32-0.74c-0.54,0.01-1.03,0.31-1.29,0.78 c-4.29,7.86-23.34,17.98-27.73,20.24c-1.6-1.36-4.93-3.75-7.72-2.88c-1.1,0.35-2.53,1.34-3.09,4.1 c-1.36,6.79,3.76,12.04,5.44,13.55c0.75,8.29,0.19,21.42-4.49,23.15c-1.62,0.6-4.4,0.77-7.61,0.97c-3.19,0.2-6.85,0.43-10.52,1.14 C107.9,81.9,114.84,70.38,114.15,60.78z M130.07,60.74c-0.04-0.4-0.24-0.77-0.56-1.02c-0.06-0.05-6.09-4.9-4.86-11.04 c0.15-0.73,0.45-1.64,1.04-1.83c1.3-0.4,4.08,1.49,5.55,2.9c0.46,0.44,1.14,0.54,1.7,0.26c0.46-0.23,5.69-2.83,11.73-6.51 c-0.23,0.38-0.41,0.83-0.48,1.34c-0.22,1.43,0.4,2.72,1.36,2.86c0.97,0.15,1.93-0.9,2.15-2.33c0.22-1.43-0.39-2.72-1.36-2.86 c-0.02,0-0.05,0-0.07,0c5.71-3.59,11.82-8.02,15.14-12.25c2.58,5.17,8.3,18.6,3.64,28.15c-2.77,5.67-8.89,9.17-18.18,10.38 c-0.61,0.08-1.11,0.52-1.26,1.12c-0.09,0.37-2.23,9.01,1.73,13.54c1.84,2.1,4.58,2.96,8.15,2.54c1.76-0.2,3.58-0.64,5.52-1.09 c1.18-0.28,2.4-0.57,3.66-0.81c1.27,3.18,7.89,20.83,2.41,31.54c-2.07,4.04-5.72,6.66-10.84,7.79 c-20.88,4.59-38.56-27.02-42.44-34.55c0.5-0.03,0.99-0.06,1.47-0.09c3.45-0.21,6.43-0.4,8.46-1.15 C132.21,84.44,130.31,63.16,130.07,60.74z M110.52,89.09c1.15,2.34,5.83,11.51,13,20.29c9.39,11.5,19.17,17.45,28.57,17.45 c1.6,0,3.18-0.17,4.75-0.52c6.04-1.33,10.37-4.47,12.87-9.35c5.82-11.37-0.18-28.63-2.03-33.37c10.05-1.12,22.69,2.49,38.3,33.24 c-13.09,4.31-15.92,16.18-16.43,22.91c-0.75-1.3-1.41-2.48-1.95-3.47c-0.03-0.05-0.07-0.1-0.1-0.15c1.25-4.61,1-9.55-0.81-14.61 c-2.01-5.64-5.2-9.41-5.34-9.57c-0.54-0.63-1.48-0.7-2.11-0.16c-0.63,0.54-0.7,1.48-0.17,2.11c0.48,0.56,11.63,13.92,2.92,27.2 c-8.54,13.01-5.78,35.13-1.08,46.68c5.18,12.76,20.86,61.38,21.83,68.5c-0.64,1.26-1.94,4.37-0.65,6.59 c0.44,0.75,1.33,1.62,3.06,1.87c1.05,2.59,3.89,10.94-1.28,14.23c-0.54,0.14-1.46,0.52-2.13,1.48c-0.6,0.86-0.83,1.95-0.72,3.25 h-13.8l-24.66-60.82c5.5-7.6,9.79-13.84,11.39-16.87c5.01-9.49,5.44-10.65,1.79-14.21c-0.2-0.19-0.41-0.4-0.64-0.63 c-1.25-1.25-1.43-2.04-1.63-2.96c-0.36-1.61-0.85-2.96-3.56-4.41c-1.48-0.79-1.7-1.47-1.99-2.4c-0.37-1.18-0.83-2.25-2.19-3.09 c3.14-3.7,9.16-11.8,5.78-16.01c-0.51-0.64-1.26-0.99-2.13-0.99c0,0-0.01,0-0.01,0c-5.15,0-18.61,15.38-25.06,23.11 c-0.32-2.12-0.76-4.98-1.2-7.77c-0.68-4.29-2.46-6.12-3.83-6.9c-1.42-0.81-3.11-0.89-4.75-0.23c-2.47,0.99-2.3,3.72-2.14,6.36 c0.05,0.82,0.1,1.67,0.1,2.55c-2.49-0.41-5.3-0.57-8.26-0.75c-4.44-0.26-9.04-0.54-12.57-1.66c-0.26-0.08-0.63-0.26-0.95-0.91 c-1.56-3.22,0.72-12.26,2.7-17.83c8.24-0.63,13.55-3.65,15.81-8.96c5.17-12.17-8.1-32.14-11.18-36.01 c-0.48-5.12-2.55-8.72-6.21-10.65c-6.68-3.53-16.79-0.49-23.91,3.4C91.08,92.44,101.34,89.94,110.52,89.09z M151.83,283.69 l-11.43-31.21c6.74-8.78,14-18.39,20.1-26.75l23.5,57.96H151.83z M112.22,283.69c3.2-1.29,6.4-3.66,9.55-7.5 c3.35-4.08,9.44-11.8,16.31-20.71l-6.85,28.2H112.22z M86.31,227.84l18.74,18.89c0.31,0.32,0.74,0.48,1.19,0.44 c0.44-0.04,0.85-0.27,1.1-0.64l30.7-44.06c0.46-0.67,0.31-1.58-0.34-2.07c-4.67-3.44-5.29-10.91-3.19-16.15 c1.23-3.08,1.05-6.12,0.9-8.56c-0.09-1.43-0.2-3.21,0.26-3.39c0.8-0.32,1.52-0.3,2.15,0.05c1.13,0.64,1.97,2.33,2.35,4.76 c0.85,5.39,1.7,11.07,1.7,11.08c0.09,0.59,0.51,1.07,1.09,1.22c0.57,0.15,1.18-0.04,1.56-0.5c9.73-11.96,21.87-24.54,24.77-24.61 c1.5,2.36-3.32,9.42-7.13,13.55c-0.35,0.38-0.48,0.92-0.34,1.42c0.14,0.5,0.52,0.89,1.02,1.04c1.78,0.52,1.93,0.99,2.25,2 c0.03,0.1,0.07,0.2,0.1,0.3c-0.61,0.43-6.97,5.02-10.33,9.49c-0.5,0.66-0.36,1.6,0.3,2.1c0.27,0.2,0.59,0.3,0.9,0.3 c0.46,0,0.91-0.21,1.2-0.6c2.84-3.79,8.35-7.89,9.49-8.72c0.45,0.43,1.01,0.86,1.77,1.27c1.71,0.91,1.81,1.38,2.04,2.41 c0.05,0.22,0.1,0.45,0.17,0.7c-1.01,0.5-3.77,2.13-6.67,5.99c-0.5,0.66-0.36,1.6,0.3,2.1c0.27,0.2,0.59,0.3,0.9,0.3 c0.46,0,0.91-0.21,1.2-0.6c2.59-3.46,4.99-4.8,5.62-5.11c0.26,0.34,0.55,0.68,0.92,1.05c0.23,0.24,0.46,0.45,0.66,0.65 c2.16,2.11,2.16,2.11-2.35,10.66c-5.36,10.16-41.54,57.13-51.86,69.68c-9.66,11.74-19.35,8.5-30.93,0.03 c-5.36-3.92-15.32-13.71-25-25.29c0.01-0.06,0.02-0.12,0.02-0.19c0-0.11,0.36-11.36,7.43-17.4c3.76-3.22,8.83-4.43,15.04-3.6 C86.12,227.85,86.22,227.85,86.31,227.84z M140.03,260.19l8.6,23.5h-14.31L140.03,260.19z M116.17,189.85 c-1.28,2.59-4.09,4.33-8.35,5.17c-12.07,2.36-23.6-10.33-27.5-15.19c0.14-0.02,0.29-0.03,0.42-0.05 c11.37-1.58,12.07-24.63,12.1-25.61c0.02-0.63-0.37-1.21-0.96-1.43c-0.09-0.04-9.06-3.7-8.16-8.86c0.28-1.63,1.06-2.16,3.07-2.16 c0.67,0,1.48,0.06,2.45,0.16c2.39,0.24,4.86,0.5,6.17-1.37c0.39-0.56,0.36-1.3-0.08-1.82c-2.32-2.77-8.11-10.94-7.08-15.48 c0.52-2.3,1.72-2.52,5.43-2.88c2.98-0.29,6.68-0.65,10.88-2.96c2.37-1.3,4.1-2.42,5.5-3.32c3.57-2.3,3.57-2.3,5.44-0.15 c3.43,3.96,15.33,23.05,11,33.24c-1.86,4.38-6.64,6.81-14.21,7.21c-0.59,0.03-1.11,0.41-1.32,0.97 c-0.59,1.56-5.67,15.43-2.92,21.1c0.6,1.23,1.54,2.08,2.74,2.46c1.5,0.48,3.14,0.81,4.85,1.06 C115.99,180.73,118.16,185.81,116.17,189.85z M56.66,135.48c-2.39-2.39-3.14-6.16-2.23-11.21c0.7-3.89,2.44-6.62,5.18-8.11 c5.16-2.81,12.64-0.78,15.63,0.22c-3.62,5.34-6.23,12.58-5.68,22.23C66.78,138.89,60.27,139.08,56.66,135.48z M72.64,139.79 c-1.62-18.51,9.17-27.71,15.75-31.55c6.98-4.07,16.51-6.87,22.06-3.94c1.93,1.02,3.26,2.74,4.01,5.1 c-1.86-0.57-3.54,0.51-6.04,2.11c-1.35,0.87-3.04,1.96-5.31,3.21c-3.66,2.01-7.03,2.34-9.73,2.6c-3.62,0.35-7.04,0.69-8.07,5.21 c-1.25,5.48,3.93,13.16,6.46,16.5c-0.71,0.02-1.6-0.08-2.25-0.15c-2.94-0.3-7.86-0.8-8.78,4.47c-1.11,6.39,6.28,10.46,9.04,11.74 c-0.07,1.3-0.21,2.89-0.44,4.62C85.78,158.3,73.77,152.6,72.64,139.79z M80.71,158.44c3.52,2.51,6.83,3.84,8.16,4.32 c-1.21,6.41-3.73,13.39-8.55,14.06c-0.95,0.13-2.03,0.24-3.22,0.35L80.71,158.44z M73.91,180.42c1.02-0.08,1.98-0.15,2.89-0.23 c1.03,1.39,4.36,5.7,9.16,9.8c6.42,5.48,12.88,8.31,18.89,8.31c1.21,0,2.39-0.11,3.56-0.34c5.24-1.03,8.76-3.32,10.47-6.8 c1.95-3.98,0.97-8.41,0.14-10.84c1.68,0.15,3.39,0.25,5.07,0.35c2.97,0.18,5.78,0.34,8.17,0.75c-0.12,0.58-0.29,1.15-0.51,1.72 c-2.32,5.8-1.92,14.04,3.07,18.74l-28.89,41.46l-33.7-33.97c-0.58-0.59-1.53-0.59-2.12-0.01c-0.59,0.58-0.59,1.53-0.01,2.12 l13.02,13.13c-5.63-0.15-10.37,1.36-14.1,4.56c-5.72,4.9-7.58,12.42-8.17,16.58c-11.54-14.31-22.02-30.67-22.88-41.98 C36.41,183.28,58.97,181.56,73.91,180.42z M44.15,227.47c12.5,20.81,34.21,43.13,42.6,49.27c3.92,2.87,8.08,5.49,12.37,6.96H33.12 L44.15,227.47z M389.85,278.04c0.15,0.17,2.83,3.13,6.11,5.65h-88.92c1.72-3.22,6.09-12.77,5.04-24.64 c2.38,4.16,6.86,6.98,11.99,6.98h1.7c5.13,4.6,18.84,6.84,30.5,7.01c12.99,0.19,19.49,0.99,29.01,3.55 c1.23,0.33,2.71,0.71,4.38,1.11C389.71,277.82,389.76,277.94,389.85,278.04z M432.13,270.19c-1.05,2.97-3.04,5.07-5.9,6.22 c-11.18,4.51-33.58-0.94-40.17-2.71c-9.8-2.64-16.47-3.46-29.74-3.65c-10.25-0.15-19.79-1.82-25.21-4.23 c1.93,0.24,4.01,0.42,5.9,0.42c1.59,0,3.05-0.13,4.16-0.45c0.79-0.23,1.25-1.07,1.02-1.86c-0.23-0.8-1.06-1.25-1.86-1.02 c-3.43,1-12.4-0.5-15.57-1.17c0,0-0.01,0-0.01,0c-1.38-1.02-2.88-2.38-3.56-3.78c4.02,0.87,12.57,2.59,17.85,2.59 c0.21,0,0.42,0,0.62-0.01c0.83-0.02,1.48-0.71,1.46-1.54c-0.02-0.83-0.7-1.5-1.54-1.46c-5.69,0.15-16.99-2.33-19.42-2.88 c-0.92-1.11-1.67-2.46-1.59-2.85c0,0,0.04-0.04,0.16-0.08c1.05-0.4,3.01,0.27,5.49,1.11c2.75,0.93,6.18,2.1,10.5,2.58 c6.66,0.74,12.83-0.15,15.35-2.22c0.96-0.79,1.23-1.62,1.28-2.17c0.14-1.57-1.42-3.03-3.58-5.05c-1.11-1.03-3.11-2.91-3.41-3.76 c2.11-1.12,11.44,3.09,15.36,7.58c4.16,4.76,31.91,2.46,40.32,1.64c0.82-0.08,1.43-0.81,1.35-1.64c-0.08-0.83-0.82-1.43-1.64-1.35 c-3.92,0.38-7.61,0.67-11.03,0.87c0.3-0.96,0.66-1.83,0.93-2.42h2.1c0.83,0,1.5-0.67,1.5-1.5c0-3.2-2.16-5.9-5.1-6.73 c3.34-2.37,5.58-6.18,5.82-10.52c1.82-1.39,8.69-6.09,16-4.32c0.03,0.01,0.07,0.01,0.1,0.01c9.93,13.44,18.85,27.18,20.55,30.24 C432.38,257.29,434.1,264.62,432.13,270.19z M447.51,230.23c-1.52,5.82-4.98,10.44-9.49,12.68c-3.33,1.66-6.92,1.84-10.09,0.53 c-0.19-0.08-0.39-0.12-0.59-0.11c-8.14-12.32-22.65-32.95-33.42-43.72c-4.02-4.02-8.33-6.77-12.64-8.68 c-0.01-0.01-0.01-0.03-0.02-0.04c-3.6-4.02-6.73-21.22-7.77-28.35c1.6-1.66,2.73-3.34,3.5-4.78c5.01-9.29,3.25-22.05-4.38-31.75 c-0.2-0.26-0.41-0.51-0.62-0.76c2-1.61,9.87-6.99,19.6-1.1c4.62,2.79,5.89,10.17,7.36,18.72c2.01,11.72,4.52,26.31,17.73,33.34 c7.5,4,13.94,6.48,19.11,8.47c9.89,3.82,14.85,5.73,15.35,13.05c0.75,11.07-8.45,13.69-8.84,13.8c-0.58,0.15-1.01,0.64-1.1,1.23 s0.19,1.18,0.7,1.5C442.27,214.47,450.31,219.56,447.51,230.23z" style="fill: inherit;"/><path d="M107.41,132.73c-0.67-1.31-1.93-2.01-2.82-1.55c-0.89,0.45-1.06,1.88-0.39,3.19c0.67,1.31,1.93,2.01,2.82,1.55 S108.08,134.04,107.41,132.73z" style="fill: inherit;"/><path d="M116.46,124.98c-0.89,0.45-1.06,1.88-0.39,3.19s1.93,2.01,2.82,1.55c0.89-0.45,1.06-1.88,0.39-3.19 C118.6,125.22,117.34,124.53,116.46,124.98z" style="fill: inherit;"/><path d="M113.06,136.75c0.48,0.1,0.99,0.15,1.52,0.12c0.53-0.06,1.09-0.17,1.65-0.47c0.54-0.29,1.1-0.76,1.4-1.39 c0.3-0.65,0.36-1.28,0.09-2c-0.05-0.14-0.2-0.22-0.35-0.18l-1.46,0.4c-0.11,0.03-0.2,0.2-0.27,0.27 c-0.08,0.09-0.15,0.17-0.22,0.23c-0.13,0.12-0.25,0.25-0.46,0.37c-0.19,0.14-0.49,0.24-0.8,0.35c-0.33,0.1-0.69,0.19-1.07,0.31 l-0.1,0.03c-0.34,0.1-0.62,0.38-0.7,0.76C112.16,136.09,112.51,136.63,113.06,136.75z" style="fill: inherit;"/><path d="M116,144.18c-0.39,0.12-0.82,0.11-1.24,0.19c-0.43,0.05-0.86,0.02-1.31,0.07l-0.15,0.02c-0.35,0.04-0.66,0.29-0.75,0.65 c-0.12,0.47,0.16,0.95,0.63,1.07c0.5,0.13,1.01,0.25,1.53,0.33c0.53,0.03,1.06,0.12,1.6,0.04c1.09-0.03,2.18-0.38,3.18-0.88 c1-0.51,1.87-1.25,2.55-2.12c0.69-0.88,1.15-1.8,1.44-2.95c0.1-0.41-0.07-0.86-0.45-1.1c-0.47-0.29-1.09-0.15-1.38,0.33 l-0.09,0.14c-0.39,0.63-0.93,1.36-1.47,1.93c-0.55,0.59-1.17,1.09-1.85,1.47C117.55,143.72,116.82,144.04,116,144.18z" style="fill: inherit;"/><path d="M112.71,124.79l0.1-0.1c0.42-0.44,0.71-0.85,1.05-1.19c0.31-0.36,0.65-0.63,1-0.91c0.36-0.27,0.77-0.5,1.25-0.71 c0.46-0.2,1.02-0.37,1.53-0.55l0.14-0.05c0.16-0.06,0.29-0.17,0.37-0.34c0.14-0.32,0-0.7-0.32-0.84 c-0.72-0.33-1.42-0.42-2.17-0.38c-0.74,0.04-1.51,0.27-2.19,0.67c-0.69,0.39-1.28,0.97-1.67,1.64c-0.4,0.67-0.59,1.41-0.59,2.14 c0,0.23,0.09,0.46,0.26,0.63C111.82,125.14,112.37,125.14,112.71,124.79z" style="fill: inherit;"/><path d="M105.34,127.61c0.16-0.06,0.29-0.17,0.37-0.34c0.14-0.32,0-0.7-0.32-0.84c-0.72-0.33-1.42-0.42-2.17-0.38 c-0.74,0.04-1.51,0.27-2.19,0.67c-0.69,0.39-1.28,0.97-1.67,1.64c-0.4,0.67-0.59,1.41-0.59,2.14c0,0.23,0.09,0.46,0.27,0.63 c0.35,0.34,0.9,0.33,1.23-0.02l0.1-0.1c0.42-0.44,0.71-0.85,1.05-1.19c0.31-0.36,0.65-0.63,1-0.91c0.36-0.27,0.77-0.5,1.25-0.71 c0.46-0.2,1.02-0.37,1.53-0.55L105.34,127.61z" style="fill: inherit;"/><path d="M332.56,141.02c0.71-1.39,0.53-2.91-0.42-3.39c-0.94-0.48-2.28,0.26-3,1.65s-0.53,2.91,0.42,3.39 S331.85,142.41,332.56,141.02z" style="fill: inherit;"/><path d="M331.35,133.84l0.15,0.05c0.55,0.19,1.14,0.37,1.63,0.58c0.5,0.22,0.94,0.46,1.32,0.75c0.38,0.3,0.74,0.58,1.06,0.97 c0.36,0.35,0.67,0.8,1.12,1.26l0.1,0.11c0.17,0.17,0.4,0.28,0.66,0.28c0.51,0,0.93-0.41,0.93-0.93c0-0.77-0.2-1.56-0.63-2.27 c-0.41-0.71-1.04-1.33-1.77-1.75c-0.72-0.43-1.54-0.67-2.33-0.71c-0.8-0.04-1.54,0.06-2.31,0.4c-0.16,0.07-0.3,0.21-0.36,0.39 C330.81,133.33,331,133.71,331.35,133.84z" style="fill: inherit;"/><path d="M159.39,44.36c-0.97-0.15-1.93,0.9-2.15,2.33c-0.22,1.43,0.39,2.72,1.36,2.86c0.97,0.15,1.93-0.9,2.15-2.33 C160.97,45.79,160.36,44.51,159.39,44.36z" style="fill: inherit;"/><path d="M151.05,52.8c0.46,0.26,0.97,0.49,1.59,0.57c0.6,0.08,1.32,0.02,1.92-0.31c0.61-0.35,1.02-0.81,1.22-1.54 c0.04-0.14-0.04-0.29-0.18-0.34l-1.4-0.52c-0.11-0.04-0.27,0.04-0.37,0.06c-0.12,0.02-0.22,0.05-0.31,0.05 c-0.18,0.02-0.34,0.06-0.58,0.03c-0.23,0-0.53-0.09-0.84-0.18c-0.32-0.1-0.66-0.24-1.04-0.37l-0.09-0.03 c-0.33-0.12-0.72-0.05-1,0.2c-0.41,0.37-0.44,1-0.07,1.41C150.23,52.19,150.61,52.52,151.05,52.8z" style="fill: inherit;"/><path d="M145.62,60.57c0.41,0.32,0.78,0.7,1.26,0.95c0.89,0.6,1.97,0.95,3.05,1.12c1.09,0.17,2.22,0.07,3.25-0.23 c1.06-0.31,1.96-0.78,2.85-1.53c0.32-0.27,0.44-0.73,0.27-1.14c-0.21-0.5-0.79-0.74-1.29-0.53l-0.15,0.06 c-0.67,0.28-1.52,0.56-2.28,0.71c-0.78,0.15-1.56,0.2-2.33,0.11c-0.76-0.1-1.53-0.27-2.26-0.62c-0.38-0.13-0.72-0.38-1.1-0.56 c-0.37-0.21-0.7-0.48-1.09-0.7l-0.13-0.07c-0.3-0.17-0.69-0.15-0.98,0.09c-0.37,0.3-0.42,0.85-0.11,1.22 C144.91,59.82,145.25,60.21,145.62,60.57z" style="fill: inherit;"/><path d="M156.5,42.06l0.13-0.02c0.59-0.11,1.06-0.28,1.52-0.35c0.45-0.12,0.88-0.14,1.32-0.16c0.44-0.01,0.91,0.05,1.4,0.15 c0.49,0.1,1.03,0.29,1.54,0.44l0.14,0.04c0.16,0.05,0.33,0.03,0.49-0.06c0.3-0.17,0.4-0.56,0.23-0.85 c-0.39-0.67-0.89-1.15-1.52-1.55c-0.62-0.4-1.36-0.65-2.14-0.72c-0.77-0.08-1.59,0.04-2.28,0.36c-0.71,0.3-1.28,0.79-1.7,1.37 c-0.13,0.18-0.19,0.42-0.15,0.65C155.58,41.83,156.03,42.14,156.5,42.06z" style="fill: inherit;"/><path d="M216.75,46.96c0.45,0.67,2.4,4.11,2.8,5.31c-0.02,0.04-0.01,0.09-0.02,0.14c-0.72,0.83-1.31,1.98-1.2,3.22 c0.06,0.66,0.32,1.27,0.76,1.76c-0.3,0.85-0.39,1.86,0.01,2.75c0.38,0.84,1.15,1.4,2.15,1.58c0.92,0.16,1.89,0.28,2.87,0.37 c0,0.01-0.01,0.02-0.01,0.03c0,2.23,1.81,4.04,4.04,4.04h1.71c2.23,0,4.04-1.81,4.04-4.04v-0.19c0-0.04-0.02-0.08-0.02-0.12 c0.26-0.04,0.52-0.08,0.78-0.12c0.17-0.03,4.24-0.81,4.92-3.15c0.16-0.56,0.19-1.36-0.45-2.23c0.23-0.77,0.45-2,0.02-3.09 c-0.17-0.43-0.43-0.79-0.75-1.1c0.14-2.73,1.66-5.04,3.29-7.47c1.61-2.42,3.28-4.92,3.68-8.01c0.36-2.82,0.12-5.85-0.7-8.77 c-1.92-6.81-6.87-11.54-12.94-12.35c-5.45-0.72-11.13,0.97-15.17,4.52c-3.75,3.3-5.81,7.86-5.8,12.85 C210.78,37.91,213.73,42.59,216.75,46.96z M226.38,37.66c0.77-0.26,1.57-0.63,2.39-1.14c0.82,0.5,1.62,0.88,2.39,1.14 c-1,4.34-0.38,11.83-0.2,13.72c-1.44,0.01-2.96,0.03-4.39,0.04C226.75,49.59,227.39,42.02,226.38,37.66z M236.57,53.73 c0.23,0.11,0.31,0.24,0.36,0.36c0.19,0.48,0.01,1.26-0.15,1.74h-15.85c-0.15-0.15-0.19-0.3-0.2-0.42 c-0.04-0.44,0.27-1.05,0.73-1.54C224.26,53.84,234,53.75,236.57,53.73z M231.52,62.12c0,0.91-0.74,1.64-1.64,1.64h-1.71 c-0.87,0-1.57-0.68-1.63-1.53c0.46,0.01,0.92,0.03,1.39,0.03c1.21,0,2.42-0.05,3.59-0.16V62.12z M234.23,59.33 c-3.76,0.7-8.69,0.7-12.56,0.02c-0.32-0.06-0.37-0.17-0.39-0.21c-0.08-0.18-0.06-0.53,0.06-0.91h15.62 C236.46,58.62,235.39,59.12,234.23,59.33z M218.15,21.85c2.99-2.63,7.01-4.09,11.08-4.09c0.73,0,1.47,0.05,2.2,0.14 c5.17,0.69,9.26,4.66,10.94,10.62c0.73,2.61,0.95,5.31,0.63,7.81c-0.32,2.53-1.77,4.69-3.29,6.98c-1.62,2.43-3.3,4.94-3.65,8.02 c-0.67,0.01-1.61,0.02-2.68,0.03c-0.39-3.87-0.62-10.13,0.12-13.23c2.51,0.18,4.51-0.8,5.55-1.89c1.22-1.29,1.41-2.89,0.47-4.07 c-0.92-1.17-1.9-1.37-2.56-1.33c-1.77,0.1-3.25,1.9-4.92,4.58c-0.81-0.26-1.68-0.68-2.58-1.31c-0.12-0.08-0.25-0.13-0.39-0.17 c-0.02-0.01-0.04-0.02-0.06-0.02c-0.08-0.01-0.15,0-0.23,0c-0.08,0-0.16-0.01-0.24,0c-0.02,0-0.03,0.01-0.05,0.02 c-0.14,0.03-0.27,0.09-0.39,0.17c0,0,0,0,0,0c-0.9,0.63-1.77,1.05-2.58,1.31c-1.67-2.68-3.15-4.48-4.92-4.58 c-0.67-0.04-1.64,0.16-2.56,1.33c-0.93,1.19-0.75,2.78,0.47,4.07c1.04,1.1,3.04,2.07,5.55,1.89c0.74,3.12,0.51,9.45,0.12,13.31 c-0.95,0.01-1.79,0.02-2.39,0.02c-0.71-2.34-3.01-5.83-3.04-5.87c-2.81-4.06-5.55-8.38-5.57-12.71 C213.16,28.6,214.92,24.68,218.15,21.85z M234.7,35.71c1.41-2.1,2.1-2.47,2.39-2.48c0,0,0.01,0,0.01,0c0.19,0,0.45,0.32,0.53,0.42 c0.25,0.31-0.27,0.88-0.33,0.94C236.8,35.12,235.89,35.59,234.7,35.71z M222.85,35.71c-1.19-0.12-2.1-0.59-2.61-1.12 c-0.06-0.06-0.58-0.63-0.33-0.94c0.08-0.1,0.34-0.42,0.53-0.42c0,0,0.01,0,0.01,0C220.75,33.25,221.44,33.62,222.85,35.71z" style="fill: inherit;"/><path d="M201.58,38.26c-0.65-0.11-1.27,0.33-1.38,0.99c-0.11,0.65,0.33,1.27,0.99,1.38l5.6,0.93c0.07,0.01,0.13,0.02,0.2,0.02 c0.58,0,1.08-0.42,1.18-1c0.11-0.65-0.33-1.27-0.99-1.38L201.58,38.26z" style="fill: inherit;"/><path d="M211.33,14.56c0.22,0.16,0.47,0.24,0.72,0.24c0.36,0,0.72-0.16,0.96-0.48c0.4-0.53,0.3-1.28-0.23-1.68l-4.53-3.43 c-0.53-0.4-1.28-0.3-1.68,0.23c-0.4,0.53-0.3,1.28,0.23,1.68L211.33,14.56z" style="fill: inherit;"/><path d="M250.07,38.57c-0.65,0.11-1.1,0.73-0.99,1.38c0.1,0.59,0.61,1,1.18,1c0.07,0,0.13-0.01,0.2-0.02l5.6-0.93 c0.65-0.11,1.1-0.73,0.99-1.38c-0.11-0.65-0.72-1.09-1.38-0.99L250.07,38.57z" style="fill: inherit;"/><path d="M197.72,23.49l7.47,2.8c0.14,0.05,0.28,0.08,0.42,0.08c0.49,0,0.94-0.3,1.12-0.78c0.23-0.62-0.08-1.31-0.7-1.54l-7.47-2.8 c-0.62-0.23-1.31,0.08-1.54,0.7C196.79,22.56,197.1,23.25,197.72,23.49z" style="fill: inherit;"/><path d="M244.2,14.43c0.25,0,0.51-0.08,0.72-0.24l4.53-3.43c0.53-0.4,0.63-1.15,0.23-1.68c-0.4-0.53-1.15-0.63-1.68-0.23 l-4.53,3.43c-0.53,0.4-0.63,1.15-0.23,1.68C243.48,14.26,243.84,14.43,244.2,14.43z" style="fill: inherit;"/><path d="M249.51,25.21c0.18,0.48,0.64,0.78,1.12,0.78c0.14,0,0.28-0.02,0.42-0.08l7.47-2.8c0.62-0.23,0.93-0.92,0.7-1.54 c-0.23-0.62-0.92-0.93-1.55-0.7l-7.47,2.8C249.59,23.9,249.28,24.59,249.51,25.21z" style="fill: inherit;"/><path d="M229.35,11.12c0.66,0,1.2-0.54,1.2-1.2V1.2c0-0.66-0.54-1.2-1.2-1.2s-1.2,0.54-1.2,1.2v8.72 C228.15,10.58,228.69,11.12,229.35,11.12z" style="fill: inherit;"/></g></g></svg>