<svg width="48" height="48" viewBox="0 0 48 48" fill="none" xmlns="http://www.w3.org/2000/svg">
<path d="M45 5C46.1046 5 47 4.10457 47 3C47 1.89543 46.1046 1 45 1C43.8954 1 43 1.89543 43 3C43 4.10457 43.8954 5 45 5Z" fill="#80DBFF"/>
<path d="M13.0005 7L16.0008 3.9998L19.001 7.0001L16.0007 10.0003L13.0005 7Z" fill="#80DBFF"/>
<path d="M47 16.319L44.91 16.739L44.21 19.099L42.82 16.319L40.04 14.929L42.4 14.23L42.82 12.14L44.21 13.53L46.3 12.84L45.61 14.929L47 16.319Z" fill="#FFE733"/>
<path d="M35.86 5.18L33.77 5.6L33.07 7.96L31.68 5.18L28.9 3.79L31.26 3.09L31.68 1L33.07 2.39L35.16 1.7L34.47 3.79L35.86 5.18Z" fill="#FF808C"/>
<path d="M19.48 37.549L16.05 39.679L8.34 31.969L10.47 28.539L19.48 37.549Z" fill="#B5EFFF"/>
<path d="M16.05 39.679L4.82 46.638C4.33772 46.9273 3.77261 47.047 3.21446 46.9783C2.65631 46.9095 2.13716 46.6562 1.73951 46.2585C1.34185 45.8609 1.08852 45.3417 1.01975 44.7836C0.950992 44.2254 1.07075 43.6603 1.36 43.178L4 38.919V39L8.34 31.97L16.05 39.679Z" fill="#D2A0F5"/>
<path d="M23.78 34.879L19.48 37.549L10.47 28.539L13.13 24.229L23.78 34.879Z" fill="#FFA1C8"/>
<path d="M27.23 32.749L23.78 34.879L13.13 24.229L15.26 20.789L27.23 32.749Z" fill="#BDF052"/>
<path d="M32.38 29.549L27.23 32.749L15.26 20.789L18.45 15.629L32.38 29.549Z" fill="#FFCFE2"/>
<path d="M45 5C46.1046 5 47 4.10457 47 3C47 1.89543 46.1046 1 45 1C43.8954 1 43 1.89543 43 3C43 4.10457 43.8954 5 45 5Z" fill="#BDF052"/>
<path d="M13.0005 7L16.0008 3.9998L19.001 7.0001L16.0007 10.0003L13.0005 7Z" fill="#80DBFF"/>
<path d="M16 8L14 6L13 7L16 10L19 7L18 6L16 8Z" fill="#4AB8F7"/>
<path d="M47 16.319L44.91 16.739L44.21 19.099L42.82 16.319L40.04 14.929L42.4 14.23L42.82 12.14L44.21 13.53L46.3 12.84L45.61 14.929L47 16.319ZM35.86 5.18L33.77 5.6L33.07 7.96L31.68 5.18L28.9 3.79L31.26 3.09L31.68 1L33.07 2.39L35.16 1.7L34.47 3.79L35.86 5.18Z" fill="#FFE733"/>
<path d="M13 34.999L8.964 30.963L8.34 31.969L12.185 35.814L13 34.999Z" fill="#64E1DC"/>
<path d="M12.185 35.814L16.05 39.679L17.056 39.054L13 34.999L12.185 35.814Z" fill="#1CADB5"/>
<path d="M13 34.9991L17.056 39.0541L19.48 37.5491L14.965 33.0341L13 34.9991Z" fill="#64E1DC"/>
<path d="M14.965 33.034L10.47 28.539L8.964 30.963L13 34.999L14.965 33.034Z" fill="#B5EFFF"/>
<path d="M8.34 31.9691L4 39.0001V38.9201L1.36 43.1781C1.07007 43.6601 0.949965 44.2253 1.01884 44.7836C1.08772 45.3419 1.34161 45.861 1.74 46.2581L12.185 35.8141L8.34 31.9691Z" fill="#D2A0F5"/>
<path d="M1.74 46.258C2.13673 46.657 2.65589 46.9114 3.21433 46.9803C3.77278 47.0492 4.33819 46.9286 4.82 46.638L16.05 39.679L12.185 35.814L1.74 46.258Z" fill="#B674F2"/>
<path d="M16 31.999L11.26 27.259L10.47 28.539L14.965 33.034L16 31.999Z" fill="#FF8FB8"/>
<path d="M14.965 33.034L19.48 37.549L20.757 36.756L16 31.999L14.965 33.034Z" fill="#FF468C"/>
<path d="M16 31.999L20.757 36.756L23.78 34.879L18.45 29.549L16 31.999Z" fill="#FF73A5"/>
<path d="M18.45 29.549L13.13 24.229L11.26 27.259L16 31.999L18.45 29.549Z" fill="#FFA1C8"/>
<path d="M19.5 28.499L13.933 22.932L13.13 24.229L18.45 29.549L19.5 28.499Z" fill="#A7E340"/>
<path d="M18.45 29.549L23.78 34.879L25.078 34.077L19.5 28.499L18.45 29.549Z" fill="#86C42B"/>
<path d="M21.237 26.762L15.26 20.789L13.933 22.932L19.5 28.499L21.237 26.762Z" fill="#BDF052"/>
<path d="M19.5 28.499L25.078 34.077L27.23 32.749L21.237 26.762L19.5 28.499Z" fill="#A7E340"/>
<path d="M25.412 22.587L22.5 25.499L28.784 31.783L32.38 29.549L25.412 22.587Z" fill="#FFA1C8"/>
<path d="M25.412 22.587L18.45 15.629L16.227 19.226L22.5 25.499L25.412 22.587Z" fill="#FFCFE2"/>
<path d="M22.5 25.499L16.227 19.226L15.26 20.789L21.237 26.762L22.5 25.499Z" fill="#FF808C"/>
<path d="M21.237 26.762L27.23 32.749L28.784 31.783L22.5 25.499L21.237 26.762Z" fill="#F25A6B"/>
<path d="M45 4C45.5523 4 46 3.55228 46 3C46 2.44772 45.5523 2 45 2C44.4477 2 44 2.44772 44 3C44 3.55228 44.4477 4 45 4Z" fill="#FFE733"/>
<path d="M26.7919 19.7925L28.2917 18.2927L29.7059 19.7069L28.2062 21.2067L26.7919 19.7925Z" fill="#4AB8F7"/>
<path d="M29.2928 17.2932L36.2923 10.2934L37.7065 11.7076L30.707 18.7073L29.2928 17.2932Z" fill="#FFA1C8"/>
<path d="M39.293 7.29279L41.2927 5.29305L42.707 6.70724L40.7073 8.70697L39.293 7.29279Z" fill="#80DBFF"/>
<path d="M37.2933 9.2926L38.6332 7.95261L40.0474 9.3668L38.7075 10.7068L37.2933 9.2926Z" fill="#C78FF5"/>
<path d="M32.643 21.145L31.357 19.613C33.4121 17.8124 35.7649 16.3831 38.31 15.389L38.99 17.27C36.666 18.1847 34.5185 19.4958 32.643 21.145Z" fill="#FF6E7C"/>
<path d="M31.875 11.4271L30.066 10.5721C30.345 9.98206 30.566 9.47206 30.73 9.00806L32.61 9.69106C32.42 10.2121 32.18 10.7801 31.875 11.4271Z" fill="#A7E340"/>
<path d="M26.117 19.117L24.7 17.7C26.5915 15.8595 28.2283 13.7744 29.567 11.5L31.307 12.485C29.8814 14.9178 28.1358 17.1484 26.117 19.117Z" fill="#80DBFF"/>
<path d="M24 16H22C22 13.231 20.359 11 19 11V9C21.664 9 24 12.271 24 16Z" fill="#C78FF5"/>
<path d="M41 21.999H43V23.999H41V21.999Z" fill="#FF73A5"/>
<path d="M24 7H26V9H24V7Z" fill="#80DBFF"/>
<path d="M24 5H26V7H24V5ZM24 9H26V11H24V9ZM26 7H28V9H26V7ZM22 7H24V9H22V7Z" fill="#FFA1C8"/>
<path d="M33.971 26.008C33.4761 25.9962 32.981 25.9929 32.486 25.998H32V24H32.479C32.986 24 33.513 24 34.029 24.011L33.971 26.008Z" fill="#B674F2"/>
<path d="M44.277 28.947C42.777 27.78 41.366 26.684 39.618 26.517C39.248 25.9274 38.7663 25.4158 38.2 25.011C37.2775 24.3911 36.1924 24.0575 35.081 24.052L34.927 26.046C35.6434 26.0413 36.348 26.2281 36.968 26.587C37.048 26.649 37.113 26.704 37.18 26.759C36.2695 27.0122 35.4618 27.5454 34.871 28.283C34.6584 28.5382 34.5037 28.8365 34.4174 29.1572C34.3311 29.4779 34.3152 29.8136 34.371 30.141C34.4666 30.5561 34.6714 30.9382 34.9644 31.2475C35.2573 31.5568 35.6276 31.7821 36.037 31.9C36.259 31.966 36.4894 31.9996 36.721 32C37.3695 31.9847 37.9937 31.7503 38.492 31.335C38.9392 31.0341 39.3084 30.6311 39.5692 30.1594C39.83 29.6877 39.9749 29.1607 39.992 28.622C41.1143 29.0738 42.1486 29.7189 43.048 30.528L43.389 30.794L44.615 29.214L44.277 28.947ZM37.99 28.632C37.9545 28.8603 37.8711 29.0784 37.7453 29.2721C37.6195 29.4659 37.4541 29.6308 37.26 29.756C37.1752 29.8417 37.0716 29.9065 36.9574 29.9453C36.8431 29.984 36.7215 29.9955 36.602 29.979C36.5438 29.9619 36.4897 29.933 36.4431 29.8941C36.3965 29.8552 36.3583 29.8072 36.331 29.753C36.331 29.734 36.345 29.647 36.468 29.482C36.8615 29.0254 37.3985 28.7161 37.991 28.605L37.99 28.632Z" fill="#C78FF5"/>
<path d="M41 19.999H43V21.999H41V19.999ZM43 21.999H45V23.999H43V21.999ZM41 23.999H43V25.999H41V23.999ZM39 21.999H41V23.999H39V21.999Z" fill="#80DBFF"/>
<path d="M21.6207 22.6026C22.2617 21.9612 22.0574 20.7177 21.1644 19.8253C20.2713 18.9329 19.0277 18.7294 18.3867 19.3709C17.7457 20.0123 17.95 21.2558 18.843 22.1482C19.7361 23.0407 20.9797 23.2441 21.6207 22.6026Z" fill="#F6FAFD"/>
<path d="M23.812 23.8115C24.1341 23.4892 24.0316 22.8646 23.5832 22.4164C23.1347 21.9683 22.51 21.8662 22.188 22.1885C21.8659 22.5108 21.9684 23.1354 22.4168 23.5836C22.8653 24.0317 23.49 24.1338 23.812 23.8115Z" fill="#F6FAFD"/>
<path d="M46.1517 2.90508C46.313 2.74374 46.2619 2.43129 46.0376 2.20721C45.8134 1.98312 45.5009 1.93226 45.3397 2.09361C45.1785 2.25495 45.2295 2.5674 45.4538 2.79148C45.678 3.01556 45.9905 3.06642 46.1517 2.90508Z" fill="#F6FAFD"/>
<path d="M17.152 6.90575C17.3133 6.74441 17.2622 6.43196 17.0379 6.20788C16.8137 5.98379 16.5012 5.93293 16.34 6.09428C16.1787 6.25562 16.2298 6.56807 16.4541 6.79215C16.6783 7.01623 16.9908 7.06709 17.152 6.90575Z" fill="#F6FAFD"/>
<path d="M17.152 23.9058C17.3133 23.7444 17.2622 23.432 17.0379 23.2079C16.8137 22.9838 16.5012 22.9329 16.34 23.0943C16.1787 23.2556 16.2298 23.5681 16.4541 23.7922C16.6783 24.0162 16.9908 24.0671 17.152 23.9058Z" fill="#F6FAFD"/>
<path d="M22.536 18.293L21.122 19.708L30.778 29.364L27.366 31.48L25.176 29.29L23.762 30.7L25.621 32.559L23.928 33.609L14.387 24.068L15.437 22.375L22.763 29.701L24.177 28.287L16.52 20.634L18.636 17.222L20.122 18.708L21.536 17.294L19.158 14.916C19.0514 14.8094 18.9221 14.7283 18.7798 14.6787C18.6374 14.6291 18.4857 14.6124 18.336 14.6297C18.1863 14.647 18.0424 14.6979 17.9151 14.7787C17.7878 14.8594 17.6804 14.9679 17.601 15.096L4.343 36.473L6.043 37.526L8.508 33.553L14.448 39.493L4.306 45.783C4.0159 45.9582 3.67564 46.0317 3.3391 45.9917C3.00256 45.9518 2.68896 45.8007 2.44794 45.5624C2.20693 45.3242 2.05227 45.0123 2.00845 44.6763C1.96462 44.3402 2.03414 43.9991 2.206 43.707L4.85 39.45L3.15 38.4L0.5 42.666C0.0947257 43.3408 -0.0728126 44.132 0.0241264 44.9131C0.121065 45.6943 0.476894 46.4204 1.03482 46.9757C1.59274 47.531 2.32059 47.8834 3.10221 47.9766C3.88382 48.0698 4.67413 47.8985 5.347 47.49L32.9 30.4C33.0281 30.3206 33.1366 30.2132 33.2173 30.0859C33.2981 29.9587 33.349 29.8148 33.3663 29.665C33.3836 29.5153 33.3669 29.3636 33.3173 29.2212C33.2677 29.0789 33.1866 28.9496 33.08 28.843L22.536 18.293ZM22.183 34.693L19.63 36.278L11.722 28.37L13.305 25.817L22.183 34.693ZM9.589 31.807L10.639 30.115L17.885 37.361L16.193 38.411L9.589 31.807ZM26.796 19.79L28.293 18.293L29.707 19.707L28.21 21.204L26.796 19.79ZM29.293 17.293L36.293 10.293L37.707 11.708L30.707 18.708L29.293 17.293ZM39.293 7.29303L41.293 5.29303L42.707 6.70803L40.707 8.70803L39.293 7.29303ZM37.293 9.29403L38.633 7.95303L40.048 9.36703L38.707 10.707L37.293 9.29403ZM46.751 14.656L47.251 13.156C47.3098 12.9798 47.3183 12.7908 47.2756 12.61C47.233 12.4292 47.1408 12.2639 47.0095 12.1326C46.8781 12.0012 46.7128 11.9091 46.532 11.8664C46.3513 11.8237 46.1622 11.8323 45.986 11.891L44.486 12.391L43.53 11.435C43.402 11.3072 43.2417 11.2165 43.0663 11.1726C42.8908 11.1287 42.7067 11.1332 42.5336 11.1857C42.3605 11.2381 42.2048 11.3365 42.0832 11.4704C41.9616 11.6043 41.8786 11.7687 41.843 11.946L41.543 13.446L39.755 13.972C39.5623 14.0287 39.3911 14.142 39.2637 14.2973C39.1363 14.4527 39.0587 14.6427 39.0409 14.8428C39.0231 15.0429 39.0659 15.2437 39.1639 15.4191C39.2618 15.5944 39.4103 15.7363 39.59 15.826L42.078 17.069L43.321 19.557C43.4041 19.7229 43.5318 19.8624 43.6897 19.9599C43.8475 20.0574 44.0294 20.109 44.215 20.109H44.305C44.5049 20.0911 44.6948 20.0134 44.85 19.886C45.0051 19.7587 45.1184 19.5876 45.175 19.395L45.7 17.6L47.2 17.3C47.3775 17.2646 47.5421 17.1816 47.6762 17.0599C47.8103 16.9382 47.9088 16.7824 47.9613 16.6091C48.0137 16.4358 48.0181 16.2516 47.9741 16.076C47.93 15.9004 47.8391 15.74 47.711 15.612L46.751 14.656ZM44.715 15.756C44.548 15.7894 44.3922 15.8649 44.2626 15.9753C44.1329 16.0857 44.0336 16.2275 43.974 16.387L43.717 15.872C43.6203 15.6786 43.4634 15.5218 43.27 15.425L42.754 15.167C42.9136 15.1075 43.0553 15.0082 43.1657 14.8785C43.2762 14.7488 43.3516 14.5931 43.385 14.426L43.436 14.169L43.508 14.241C43.6393 14.3722 43.8046 14.4642 43.9853 14.5068C44.166 14.5493 44.3549 14.5408 44.531 14.482L44.723 14.418L44.659 14.61C44.6003 14.7861 44.5917 14.9751 44.6343 15.1557C44.6768 15.3364 44.7688 15.5017 44.9 15.633L44.972 15.705L44.715 15.756ZM38.993 17.27L38.315 15.388C35.768 16.3801 33.4135 17.8085 31.357 19.609L32.642 21.143C34.5183 19.4935 36.6674 18.1829 38.993 17.27ZM31.67 21.989L30.329 20.5C29.829 20.952 29.348 21.412 28.885 21.875L30.3 23.293C30.738 22.854 31.2 22.417 31.67 21.989ZM28.448 4.68003L30.936 5.92303L32.179 8.41103C32.2621 8.57692 32.3898 8.71642 32.5477 8.8139C32.7055 8.91139 32.8874 8.96302 33.073 8.96303H33.163C33.3628 8.94515 33.5526 8.8676 33.7078 8.74045C33.8629 8.6133 33.9762 8.44243 34.033 8.25003L34.559 6.46203L36.059 6.16203C36.2363 6.12645 36.4007 6.04344 36.5346 5.92183C36.6685 5.80022 36.7669 5.64457 36.8194 5.47146C36.8718 5.29835 36.8763 5.11425 36.8324 4.93878C36.7885 4.76331 36.6978 4.60304 36.57 4.47503L35.614 3.51903L36.114 2.01903C36.1746 1.84218 36.1845 1.65187 36.1424 1.46972C36.1003 1.28756 36.008 1.12084 35.876 0.988487C35.7439 0.856134 35.5774 0.763446 35.3954 0.720943C35.2133 0.67844 35.023 0.687825 34.846 0.748031L33.346 1.24803L32.388 0.293031C32.2603 0.164985 32.1002 0.073968 31.9249 0.0296702C31.7496 -0.0146276 31.5655 -0.0105483 31.3923 0.041474C31.2191 0.0934963 31.0632 0.191514 30.9413 0.325092C30.8194 0.45867 30.736 0.622808 30.7 0.800031L30.4 2.30003L28.612 2.82603C28.4193 2.88266 28.2481 2.99602 28.1207 3.15134C27.9933 3.30666 27.9157 3.49674 27.8979 3.69682C27.8801 3.8969 27.9229 4.0977 28.0209 4.27307C28.1188 4.44844 28.2683 4.59025 28.448 4.68003ZM32.248 3.28503L32.299 3.02803L32.371 3.10003C32.5023 3.23119 32.6676 3.3232 32.8483 3.36576C33.029 3.40833 33.2179 3.39976 33.394 3.34103L33.586 3.27703L33.522 3.46903C33.4633 3.64511 33.4547 3.83407 33.4973 4.01474C33.5398 4.19542 33.6318 4.36068 33.763 4.49203L33.835 4.56403L33.578 4.61503C33.411 4.6484 33.2552 4.72387 33.1256 4.8343C32.9959 4.94473 32.8966 5.08645 32.837 5.24603L32.579 4.73003C32.4823 4.53662 32.3254 4.37978 32.132 4.28303L31.617 4.02603C31.7758 3.96592 31.9167 3.86635 32.0264 3.73671C32.1361 3.60707 32.211 3.45162 32.244 3.28503H32.248ZM30.068 10.56L31.863 11.441C32.1449 10.87 32.3949 10.2837 32.612 9.68503L30.73 9.00703C30.5382 9.53655 30.3172 10.055 30.068 10.56ZM24.707 17.7L26.121 19.114C28.1351 17.1453 29.8793 14.9182 31.308 12.491L29.566 11.508C28.227 13.7776 26.5931 15.8597 24.707 17.7ZM45 6.00003C45.5933 6.00003 46.1734 5.82408 46.6667 5.49444C47.1601 5.16479 47.5446 4.69626 47.7716 4.14808C47.9987 3.5999 48.0581 2.9967 47.9424 2.41476C47.8266 1.83282 47.5409 1.29827 47.1213 0.87871C46.7018 0.459153 46.1672 0.17343 45.5853 0.0576747C45.0033 -0.058081 44.4001 0.001329 43.852 0.228392C43.3038 0.455455 42.8352 0.839972 42.5056 1.33332C42.1759 1.82667 42 2.40669 42 3.00003C42 3.79568 42.3161 4.55874 42.8787 5.12135C43.4413 5.68396 44.2044 6.00003 45 6.00003ZM45 2.00003C45.1978 2.00003 45.3911 2.05868 45.5556 2.16856C45.72 2.27844 45.8482 2.43462 45.9239 2.61735C45.9996 2.80007 46.0194 3.00114 45.9808 3.19512C45.9422 3.3891 45.847 3.56728 45.7071 3.70714C45.5673 3.84699 45.3891 3.94223 45.1951 3.98082C45.0011 4.0194 44.8 3.9996 44.6173 3.92391C44.4346 3.84822 44.2784 3.72005 44.1685 3.5556C44.0586 3.39115 44 3.19781 44 3.00003C44 2.73481 44.1054 2.48046 44.2929 2.29292C44.4804 2.10539 44.7348 2.00003 45 2.00003ZM15.293 10.707C15.4805 10.8945 15.7348 10.9998 16 10.9998C16.2652 10.9998 16.5195 10.8945 16.707 10.707L19.707 7.70703C19.8945 7.5195 19.9998 7.26519 19.9998 7.00003C19.9998 6.73487 19.8945 6.48056 19.707 6.29303L16.707 3.29303C16.5195 3.10556 16.2652 3.00024 16 3.00024C15.7348 3.00024 15.4805 3.10556 15.293 3.29303L12.293 6.29303C12.1055 6.48056 12.0002 6.73487 12.0002 7.00003C12.0002 7.26519 12.1055 7.5195 12.293 7.70703L15.293 10.707ZM16 5.41403L17.586 7.00003L16 8.58603L14.414 7.00003L16 5.41403ZM19 11C20.359 11 22 13.23 22 16H24C24 12.271 21.664 9.00003 19 9.00003V11ZM24 5.00003H26V7.00003H24V5.00003ZM24 9.00003H26V11H24V9.00003ZM26 7.00003H28V9.00003H26V7.00003ZM22 7.00003H24V9.00003H22V7.00003ZM41 20H43V22H41V20ZM41 24H43V26H41V24ZM43 22H45V24H43V22ZM39 22H41V24H39V22ZM32 24V26H32.588C33.045 26 33.514 26 33.979 26.005L34.021 24.005C33.539 24 33.052 24 32.578 24H32ZM39.641 26.512C39.2601 25.9212 38.7684 25.4098 38.193 25.006C37.2697 24.3914 36.1862 24.0614 35.077 24.057L34.923 26.051C35.6383 26.0464 36.3423 26.2303 36.964 26.584C37.042 26.644 37.113 26.701 37.179 26.754C36.27 27.0087 35.4636 27.5416 34.873 28.278C34.6585 28.5349 34.5026 28.8355 34.4162 29.1588C34.3299 29.4821 34.3151 29.8204 34.373 30.15C34.4989 30.6762 34.7981 31.1448 35.2226 31.4804C35.647 31.8159 36.1719 31.9989 36.713 32C37.3622 31.9846 37.9871 31.7498 38.486 31.334C38.936 31.0331 39.3075 30.629 39.5694 30.1553C39.8314 29.6816 39.9763 29.1521 39.992 28.611C41.1205 29.0692 42.1599 29.7217 43.063 30.539L43.386 30.791L44.614 29.212L44.295 28.963C42.8 27.789 41.376 26.679 39.641 26.512ZM37.992 28.631C37.955 28.8612 37.8697 29.0809 37.7416 29.2757C37.6135 29.4704 37.4456 29.6358 37.249 29.761C37.1658 29.8458 37.064 29.9099 36.9517 29.9485C36.8394 29.987 36.7197 29.9988 36.602 29.983C36.4869 29.9461 36.3907 29.8658 36.334 29.759C36.329 29.73 36.351 29.64 36.468 29.485C36.8605 29.0256 37.3982 28.7141 37.992 28.602V28.631Z" fill="black"/>
</svg>
