<svg width="27" height="17" viewBox="0 0 27 17" fill="none" xmlns="http://www.w3.org/2000/svg">
<path d="M5.16667 15.9999C5.25508 16 5.3462 16 5.44015 16H13.5M5.16667 15.9999C3.79407 15.999 3.07408 15.9835 2.51638 15.7278C1.99371 15.4881 1.56907 15.1046 1.30276 14.6342C1 14.0995 1 13.4004 1 12.0002V5.00024C1 3.60011 1 2.89953 1.30276 2.36475C1.56907 1.89434 1.99371 1.51217 2.51638 1.27248C3.11058 1 3.88901 1 5.44472 1H21.5558C23.1115 1 23.8883 1 24.4825 1.27248C25.0052 1.51217 25.4312 1.89434 25.6975 2.36475C26 2.899 26 3.59874 26 4.99614V12.0039C26 13.4013 26 14.1 25.6975 14.6342C25.4312 15.1046 25.0052 15.4881 24.4825 15.7278C23.8889 16 23.1125 16 21.5598 16H13.5M5.16667 15.9999C5.16672 14.6193 7.03218 13.5 9.33333 13.5C11.6345 13.5 13.5 14.6193 13.5 16M5.16667 15.9999V15.9999ZM21.8333 11H16.2778M21.8333 7.25H17.6667M9.33333 9.75C7.79921 9.75 6.55556 8.63071 6.55556 7.25C6.55556 5.86929 7.79921 4.75 9.33333 4.75C10.8675 4.75 12.1111 5.86929 12.1111 7.25C12.1111 8.63071 10.8675 9.75 9.33333 9.75Z" stroke="white" stroke-width="2" stroke-linecap="round" stroke-linejoin="round"/>
</svg>
