<svg width="18" height="18" viewBox="0 0 18 18" fill="none" xmlns="http://www.w3.org/2000/svg">
<path d="M16 17H17M13 17H11V14M14 14H17V11H16M11 11H13M1 13.9997C1 13.0679 1 12.6019 1.15224 12.2344C1.35523 11.7443 1.74432 11.3552 2.23438 11.1522C2.60192 11 3.06786 11 3.99974 11C4.93163 11 5.39808 11 5.76562 11.1522C6.25568 11.3552 6.64467 11.7443 6.84766 12.2344C6.9999 12.6019 6.9999 13.0681 6.9999 14C6.9999 14.9319 6.9999 15.3978 6.84766 15.7654C6.64467 16.2554 6.25568 16.6447 5.76562 16.8477C5.39808 16.9999 4.93162 16.9999 3.99974 16.9999C3.06786 16.9999 2.60192 16.9999 2.23438 16.8477C1.74432 16.6447 1.35523 16.2557 1.15224 15.7656C1 15.3981 1 14.9316 1 13.9997ZM11 3.99974C11 3.06786 11 2.60192 11.1522 2.23438C11.3552 1.74432 11.7443 1.35523 12.2344 1.15224C12.6019 1 13.0679 1 13.9997 1C14.9316 1 15.3981 1 15.7656 1.15224C16.2557 1.35523 16.6447 1.74432 16.8477 2.23438C16.9999 2.60192 16.9999 3.06812 16.9999 4C16.9999 4.93188 16.9999 5.39783 16.8477 5.76537C16.6447 6.25542 16.2557 6.64467 15.7656 6.84766C15.3981 6.9999 14.9316 6.9999 13.9997 6.9999C13.0679 6.9999 12.6019 6.9999 12.2344 6.84766C11.7443 6.64467 11.3552 6.25568 11.1522 5.76562C11 5.39808 11 4.93163 11 3.99974ZM1 3.99974C1 3.06786 1 2.60192 1.15224 2.23438C1.35523 1.74432 1.74432 1.35523 2.23438 1.15224C2.60192 1 3.06786 1 3.99974 1C4.93163 1 5.39808 1 5.76562 1.15224C6.25568 1.35523 6.64467 1.74432 6.84766 2.23438C6.9999 2.60192 6.9999 3.06812 6.9999 4C6.9999 4.93188 6.9999 5.39783 6.84766 5.76537C6.64467 6.25542 6.25568 6.64467 5.76562 6.84766C5.39808 6.9999 4.93162 6.9999 3.99974 6.9999C3.06786 6.9999 2.60192 6.9999 2.23438 6.84766C1.74432 6.64467 1.35523 6.25568 1.15224 5.76562C1 5.39808 1 4.93163 1 3.99974Z" stroke="white" stroke-width="2" stroke-linecap="round" stroke-linejoin="round"/>
</svg>
