<svg width="74" height="74" viewBox="0 0 74 74" fill="none" xmlns="http://www.w3.org/2000/svg">
<circle cx="36.9842" cy="36.9842" r="36.9842" fill="#FCF4E9"/>
<circle cx="36.4064" cy="37.5621" r="24.8487" fill="black"/>
<path d="M45.813 47.1338H47.1338M41.8504 47.1338H39.2086V43.1712M43.1712 43.1712H47.1338V39.2086H45.813M39.2086 39.2086H41.8504M26 43.1709C26 41.94 26 41.3245 26.2011 40.8391C26.4692 40.1918 26.9831 39.6778 27.6304 39.4097C28.1159 39.2086 28.7314 39.2086 29.9622 39.2086C31.1931 39.2086 31.8093 39.2086 32.2947 39.4097C32.942 39.6778 33.4558 40.1918 33.724 40.8391C33.925 41.3245 33.925 41.9403 33.925 43.1712C33.925 44.4021 33.925 45.0176 33.724 45.503C33.4558 46.1503 32.942 46.6645 32.2947 46.9326C31.8093 47.1337 31.1931 47.1337 29.9622 47.1337C28.7314 47.1337 28.1159 47.1337 27.6304 46.9326C26.9831 46.6645 26.4692 46.1507 26.2011 45.5034C26 45.0179 26 44.4018 26 43.1709ZM39.2086 29.9622C39.2086 28.7314 39.2086 28.1159 39.4097 27.6304C39.6778 26.9831 40.1918 26.4692 40.8391 26.2011C41.3245 26 41.94 26 43.1709 26C44.4018 26 45.0179 26 45.5034 26.2011C46.1507 26.4692 46.6645 26.9831 46.9326 27.6304C47.1337 28.1159 47.1337 28.7317 47.1337 29.9626C47.1337 31.1935 47.1337 31.8089 46.9326 32.2944C46.6645 32.9417 46.1507 33.4558 45.5034 33.724C45.0179 33.925 44.4018 33.925 43.1709 33.925C41.94 33.925 41.3245 33.925 40.8391 33.724C40.1918 33.4558 39.6778 32.942 39.4097 32.2947C39.2086 31.8093 39.2086 31.1931 39.2086 29.9622ZM26 29.9622C26 28.7314 26 28.1159 26.2011 27.6304C26.4692 26.9831 26.9831 26.4692 27.6304 26.2011C28.1159 26 28.7314 26 29.9622 26C31.1931 26 31.8093 26 32.2947 26.2011C32.942 26.4692 33.4558 26.9831 33.724 27.6304C33.925 28.1159 33.925 28.7317 33.925 29.9626C33.925 31.1935 33.925 31.8089 33.724 32.2944C33.4558 32.9417 32.942 33.4558 32.2947 33.724C31.8093 33.925 31.1931 33.925 29.9622 33.925C28.7314 33.925 28.1159 33.925 27.6304 33.724C26.9831 33.4558 26.4692 32.942 26.2011 32.2947C26 31.8093 26 31.1931 26 29.9622Z" stroke="white" stroke-width="2" stroke-linecap="round" stroke-linejoin="round"/>
</svg>
