<svg width="32" height="32" viewBox="0 0 32 32" fill="none" xmlns="http://www.w3.org/2000/svg">
<path d="M28.5 29.125L23 23.5M12.0004 31H6.86103C4.81151 31 3.7852 31 3.00163 30.5917C2.3117 30.2321 1.75118 29.6579 1.39964 28.9523C1 28.1501 1 27.1006 1 25.0004V7.00037C1 4.90017 1 3.84929 1.39964 3.04712C1.75118 2.34151 2.3117 1.76825 3.00163 1.40873C3.78597 1 4.8135 1 6.86702 1H24.467C26.5206 1 27.5459 1 28.3302 1.40873C29.0201 1.76825 29.5825 2.34151 29.9341 3.04712C30.3333 3.8485 30.3333 4.89811 30.3333 6.9942V12.2504M18.4167 25.375C14.8728 25.375 12 22.4369 12 18.8125C12 15.1881 14.8728 12.25 18.4167 12.25C21.9605 12.25 24.8333 15.1881 24.8333 18.8125C24.8333 22.4369 21.9605 25.375 18.4167 25.375Z" stroke="white" stroke-width="2" stroke-linecap="round" stroke-linejoin="round"/>
</svg>
